<?xml version="1.0" encoding="iso-8859-1"?>
<!-- Generator: Adobe Illustrator 16.0.0, SVG Export Plug-In . SVG Version: 6.00 Build 0)  -->
<!DOCTYPE svg PUBLIC "-//W3C//DTD SVG 1.1//EN" "http://www.w3.org/Graphics/SVG/1.1/DTD/svg11.dtd">
<svg version="1.1" id="Capa_1" xmlns="http://www.w3.org/2000/svg" xmlns:xlink="http://www.w3.org/1999/xlink" x="0px" y="0px"
	 width="106.048px" height="106.048px" viewBox="0 0 106.048 106.048" style="enable-background:new 0 0 106.048 106.048;"
	 xml:space="preserve">
<g>
	<path style="fill:#010002;" d="M84.838,0H21.209C9.543,0,0,9.543,0,21.209v63.629c0,11.666,9.543,21.21,21.209,21.21h63.628
		c11.667,0,21.21-9.544,21.21-21.21V21.209C106.048,9.543,96.505,0,84.838,0z M49.862,19.889v-6.628l18.717,10.802L49.862,34.864
		v-6.289c-6.827,0.886-13.059,4.606-17.057,10.333l-7.109-4.969C31.328,25.891,40.203,20.815,49.862,19.889z M19.884,56.192h-6.628
		l10.802-18.716l10.801,18.716H28.57c0.885,6.825,4.606,13.06,10.333,17.058l-4.969,7.109C25.885,74.725,20.811,65.85,19.884,56.192
		z M56.193,86.158v6.628L37.482,81.984l18.711-10.801v6.291c6.819-0.891,13.049-4.604,17.057-10.325l7.104,4.972
		C74.715,80.162,65.85,85.231,56.193,86.158z M81.99,68.579L71.188,49.862h6.297c-0.891-6.822-4.608-13.054-10.341-17.067
		l4.977-7.099c8.047,5.642,13.121,14.506,14.043,24.166h6.628L81.99,68.579z"/>
</g>
<g>
</g>
<g>
</g>
<g>
</g>
<g>
</g>
<g>
</g>
<g>
</g>
<g>
</g>
<g>
</g>
<g>
</g>
<g>
</g>
<g>
</g>
<g>
</g>
<g>
</g>
<g>
</g>
<g>
</g>
</svg>
