<?xml version="1.0" encoding="UTF-8" standalone="no"?>
<!-- Generator: Adobe Illustrator 15.1.0, SVG Export Plug-In . SVG Version: 6.00 Build 0)  -->

<svg
   xmlns:dc="http://purl.org/dc/elements/1.1/"
   xmlns:cc="http://creativecommons.org/ns#"
   xmlns:rdf="http://www.w3.org/1999/02/22-rdf-syntax-ns#"
   xmlns:svg="http://www.w3.org/2000/svg"
   xmlns="http://www.w3.org/2000/svg"
   xmlns:sodipodi="http://sodipodi.sourceforge.net/DTD/sodipodi-0.dtd"
   xmlns:inkscape="http://www.inkscape.org/namespaces/inkscape"
   version="1.0"
   id="Layer_1"
   x="0px"
   y="0px"
   width="337.34"
   height="337.34"
   viewBox="0 0 337.34 337.34"
   enable-background="new 0 0 792 612"
   xml:space="preserve"
   inkscape:version="0.48.5 r10040"
   sodipodi:docname="css.svg"><metadata
     id="metadata49"><rdf:RDF><cc:Work
         rdf:about=""><dc:format>image/svg+xml</dc:format><dc:type
           rdf:resource="http://purl.org/dc/dcmitype/StillImage" /></cc:Work></rdf:RDF></metadata><defs
     id="defs47" /><sodipodi:namedview
     pagecolor="#ffffff"
     bordercolor="#666666"
     borderopacity="1"
     objecttolerance="10"
     gridtolerance="10"
     guidetolerance="10"
     inkscape:pageopacity="0"
     inkscape:pageshadow="2"
     inkscape:window-width="1366"
     inkscape:window-height="707"
     id="namedview45"
     showgrid="false"
     inkscape:zoom="0.38562092"
     inkscape:cx="396"
     inkscape:cy="306"
     inkscape:window-x="-2"
     inkscape:window-y="-3"
     inkscape:window-maximized="1"
     inkscape:current-layer="Layer_1" /><g
     id="g3002"
     transform="translate(-41.265,-82.530001)"><polygon
       transform="translate(-390.861,-81.141)"
       id="polygon29"
       points="479.142,467.29 452.071,163.67 749.521,163.67 722.425,467.241 600.614,501.011 "
       style="fill:#1572b6" /><polygon
       transform="translate(-390.861,-81.141)"
       id="polygon31"
       points="600.798,475.199 699.225,447.911 722.382,188.496 600.798,188.496 "
       style="fill:#33a9dc" /><g
       transform="translate(-390.861,-81.141)"
       id="g33"><polygon
         id="polygon35"
         points="600.797,298.496 650.072,298.496 653.475,260.364 600.797,260.364 600.797,223.125 600.926,223.125 694.172,223.125 693.279,233.116 684.127,335.732 600.797,335.732 "
         style="fill:#ffffff" /><polygon
         id="polygon37"
         points="559.385,384.051 556.733,354.353 536.582,354.353 519.354,354.353 524.57,412.82 600.848,433.996 601.02,433.948 601.02,395.204 600.857,395.25 "
         style="fill:#ebebeb" /><polygon
         id="polygon39"
         points="684.268,334.156 646.907,334.156 642.423,384.026 600.891,395.236 600.891,433.978 677.23,412.82 677.79,406.53 "
         style="fill:#ffffff" /><polygon
         id="polygon41"
         points="600.926,223.125 600.926,246.253 600.926,260.272 600.926,260.364 511.098,260.364 511.098,260.364 510.979,260.364 510.232,251.994 508.535,233.116 507.645,223.125 "
         style="fill:#ebebeb" /><polygon
         id="polygon43"
         points="600.797,298.5 600.797,321.629 600.797,335.646 600.797,335.738 559.969,335.738 559.969,335.738 559.85,335.738 559.104,327.369 557.406,308.491 556.516,298.5 "
         style="fill:#ebebeb" /></g></g></svg>