<?xml version="1.0" encoding="UTF-8" standalone="no"?>
<!-- Created with Inkscape (http://www.inkscape.org/) -->

<svg
   xmlns:dc="http://purl.org/dc/elements/1.1/"
   xmlns:cc="http://creativecommons.org/ns#"
   xmlns:rdf="http://www.w3.org/1999/02/22-rdf-syntax-ns#"
   xmlns:svg="http://www.w3.org/2000/svg"
   xmlns="http://www.w3.org/2000/svg"
   xmlns:sodipodi="http://sodipodi.sourceforge.net/DTD/sodipodi-0.dtd"
   xmlns:inkscape="http://www.inkscape.org/namespaces/inkscape"
   id="svg2"
   version="1.1"
   inkscape:version="0.48.5 r10040"
   width="595.29999"
   height="595.29999"
   xml:space="preserve"
   sodipodi:docname="Docker logo masterfile 1.2.ai.svg"><metadata
     id="metadata8"><rdf:RDF><cc:Work
         rdf:about=""><dc:format>image/svg+xml</dc:format><dc:type
           rdf:resource="http://purl.org/dc/dcmitype/StillImage" /><dc:title></dc:title></cc:Work></rdf:RDF></metadata><defs
     id="defs6"><clipPath
       clipPathUnits="userSpaceOnUse"
       id="clipPath18"><path
         d="M 0,580 650,580 650,0 0,0 0,580 z"
         id="path20"
         inkscape:connector-curvature="0" /></clipPath></defs><sodipodi:namedview
     pagecolor="#ffffff"
     bordercolor="#666666"
     borderopacity="1"
     objecttolerance="10"
     gridtolerance="10"
     guidetolerance="10"
     inkscape:pageopacity="0"
     inkscape:pageshadow="2"
     inkscape:window-width="1366"
     inkscape:window-height="707"
     id="namedview4"
     showgrid="false"
     inkscape:zoom="0.32551724"
     inkscape:cx="406.25"
     inkscape:cy="362.5"
     inkscape:window-x="-2"
     inkscape:window-y="-3"
     inkscape:window-maximized="1"
     inkscape:current-layer="g10" /><g
     id="g10"
     inkscape:groupmode="layer"
     inkscape:label="Docker logo masterfile 1.2"
     transform="matrix(1.25,0,0,-1.25,0,595.3)"><g
       id="g3122"
       transform="translate(-88,-118.67539)"><g
         transform="translate(363.3867,406.6094)"
         id="g26"><path
           inkscape:connector-curvature="0"
           id="path28"
           style="fill:#394d54;fill-opacity:1;fill-rule:evenodd;stroke:none"
           d="m 0,0 42.695,0 0,-43.646 21.588,0 c 9.969,0 20.223,1.777 29.664,4.976 4.639,1.572 9.846,3.762 14.422,6.515 -6.027,7.869 -9.103,17.804 -10.01,27.598 -1.23,13.322 1.457,30.661 10.473,41.086 l 4.488,5.192 5.348,-4.299 c 13.465,-10.818 24.789,-25.935 26.785,-43.166 16.213,4.768 35.248,3.64 49.539,-4.608 l 5.863,-3.382 -3.085,-6.024 c -12.086,-23.588 -37.354,-30.894 -62.057,-29.601 -36.965,-92.069 -117.442,-135.657 -215.02,-135.657 -50.412,0 -96.664,18.846 -123.002,63.573 l -0.431,0.73 -3.838,7.807 c -8.902,19.687 -11.86,41.256 -9.854,62.805 l 0.602,6.455 36.51,0 0,43.646 42.693,0 0,42.695 85.393,0 0,42.696 L 0,85.391 0,0 z" /></g><g
         transform="translate(501.7129,390.4629)"
         id="g30"><path
           inkscape:connector-curvature="0"
           id="path32"
           style="fill:#00aada;fill-opacity:1;fill-rule:nonzero;stroke:none"
           d="m 0,0 c 2.863,22.248 -13.787,39.725 -24.113,48.021 -11.899,-13.757 -13.748,-49.812 4.92,-64.992 -10.418,-9.254 -32.371,-17.642 -54.85,-17.642 l -273.627,0 c -2.185,-23.465 1.934,-45.073 11.342,-63.569 l 3.113,-5.693 c 1.971,-3.345 4.124,-6.573 6.451,-9.681 l 0.001,0 c 11.249,-0.722 21.621,-0.972 31.11,-0.762 l 0.005,0 c 18.647,0.413 33.862,2.613 45.394,6.609 1.717,0.597 3.588,-0.313 4.182,-2.029 0.593,-1.715 -0.315,-3.587 -2.03,-4.182 -1.533,-0.531 -3.132,-1.028 -4.783,-1.5 -0.002,-0.001 -0.004,-0.001 -0.006,-0.002 -9.08,-2.592 -18.816,-4.337 -31.379,-5.112 0.745,-0.012 -0.777,-0.112 -0.781,-0.112 -0.427,-0.027 -0.965,-0.087 -1.394,-0.112 -4.944,-0.277 -10.281,-0.335 -15.737,-0.335 -5.966,0 -11.844,0.114 -18.414,0.447 l -0.168,-0.112 c 22.799,-25.625 58.448,-40.994 103.131,-40.994 94.57,0 174.785,41.922 210.305,136.039 25.201,-2.586 49.42,3.84 60.437,25.346 C 35.561,9.76 12.994,6.531 0,0" /></g><g
         transform="translate(501.7129,390.4629)"
         id="g34"><path
           inkscape:connector-curvature="0"
           id="path36"
           style="fill:#24b8eb;fill-opacity:1;fill-rule:nonzero;stroke:none"
           d="m 0,0 c 2.863,22.248 -13.787,39.725 -24.113,48.021 -11.899,-13.757 -13.748,-49.812 4.92,-64.992 -10.418,-9.254 -32.371,-17.642 -54.85,-17.642 l -257.424,0 c -1.117,-35.936 12.219,-63.214 35.814,-79.705 l 0.005,0 c 18.647,0.413 33.862,2.613 45.394,6.609 1.717,0.597 3.588,-0.313 4.182,-2.029 0.593,-1.715 -0.315,-3.587 -2.03,-4.182 -1.533,-0.531 -3.132,-1.028 -4.783,-1.5 -0.002,-0.001 -0.004,-0.001 -0.006,-0.002 -9.08,-2.592 -19.653,-4.56 -32.215,-5.336 -0.004,0 -0.305,0.291 -0.309,0.29 32.185,-16.509 78.852,-16.45 132.356,4.103 C -93.064,-93.318 -37.24,-49.408 1.713,0.814 1.125,0.549 0.553,0.277 0,0" /></g><g
         transform="translate(154.5547,327.3398)"
         id="g38"><path
           inkscape:connector-curvature="0"
           id="path40"
           style="fill:#008bb8;fill-opacity:1;fill-rule:nonzero;stroke:none"
           d="m 0,0 c 1.701,-12.568 5.377,-24.338 10.83,-35.059 l 3.113,-5.693 c 1.971,-3.345 4.124,-6.573 6.453,-9.681 11.25,-0.722 21.624,-0.972 31.114,-0.762 18.647,0.413 33.862,2.613 45.394,6.609 1.717,0.597 3.588,-0.313 4.182,-2.029 0.594,-1.715 -0.315,-3.587 -2.029,-4.182 -1.534,-0.531 -3.133,-1.028 -4.784,-1.5 -0.002,-0.001 -0.003,-0.001 -0.005,-0.002 -9.08,-2.592 -19.598,-4.449 -32.161,-5.224 -0.43,-0.027 -1.183,-0.032 -1.618,-0.056 -4.942,-0.277 -10.223,-0.446 -15.68,-0.446 -5.966,0 -12.068,0.113 -18.637,0.446 22.799,-25.625 58.67,-41.05 103.353,-41.05 80.961,0 151.399,30.731 192.282,98.629 L 0,0 z" /></g><g
         transform="translate(172.709,327.3398)"
         id="g42"><path
           inkscape:connector-curvature="0"
           id="path44"
           style="fill:#039bc6;fill-opacity:1;fill-rule:nonzero;stroke:none"
           d="m 0,0 c 4.84,-22.069 16.471,-39.395 33.355,-51.195 18.648,0.413 33.863,2.613 45.395,6.609 1.717,0.597 3.588,-0.313 4.182,-2.029 0.593,-1.715 -0.315,-3.587 -2.03,-4.182 -1.533,-0.531 -3.132,-1.028 -4.783,-1.5 -0.002,-0.001 -0.004,-0.001 -0.006,-0.002 -9.08,-2.592 -19.82,-4.449 -32.383,-5.224 32.182,-16.507 78.715,-16.27 132.215,4.281 32.366,12.435 63.516,30.947 91.463,53.242 L 0,0 z" /></g><path
         inkscape:connector-curvature="0"
         id="path46"
         style="fill:#00acd3;fill-opacity:1;fill-rule:evenodd;stroke:none"
         d="m 191.182,399.494 37.002,0 0,-37.004 -37.002,0 0,37.004 z m 3.082,-3.084 2.92,0 0,-30.838 -2.92,0 0,30.838 z m 5.49,0 3.037,0 0,-30.838 -3.037,0 0,30.838 z m 5.605,0 3.037,0 0,-30.838 -3.037,0 0,30.838 z m 5.608,0 3.037,0 0,-30.838 -3.037,0 0,30.838 z m 5.607,0 3.037,0 0,-30.838 -3.037,0 0,30.838 z m 5.606,0 2.922,0 0,-30.838 -2.922,0 0,30.838 z" /><path
         inkscape:connector-curvature="0"
         id="path48"
         style="fill:#00acd3;fill-opacity:1;fill-rule:evenodd;stroke:none"
         d="m 233.875,442.189 37.006,0 0,-37.003 -37.006,0 0,37.003 z m 3.086,-3.084 2.918,0 0,-30.836 -2.918,0 0,30.836 z m 5.49,0 3.035,0 0,-30.836 -3.035,0 0,30.836 z m 5.604,0 3.037,0 0,-30.836 -3.037,0 0,30.836 z m 5.607,0 3.037,0 0,-30.836 -3.037,0 0,30.836 z m 5.608,0 3.037,0 0,-30.836 -3.037,0 0,30.836 z m 5.605,0 2.924,0 0,-30.836 -2.924,0 0,30.836 z" /><path
         inkscape:connector-curvature="0"
         id="path50"
         style="fill:#20c2ef;fill-opacity:1;fill-rule:evenodd;stroke:none"
         d="m 233.875,399.494 37.006,0 0,-37.004 -37.006,0 0,37.004 z m 3.086,-3.084 2.918,0 0,-30.838 -2.918,0 0,30.838 z m 5.49,0 3.035,0 0,-30.838 -3.035,0 0,30.838 z m 5.604,0 3.037,0 0,-30.838 -3.037,0 0,30.838 z m 5.607,0 3.037,0 0,-30.838 -3.037,0 0,30.838 z m 5.608,0 3.037,0 0,-30.838 -3.037,0 0,30.838 z m 5.605,0 2.924,0 0,-30.838 -2.924,0 0,30.838 z" /><path
         inkscape:connector-curvature="0"
         id="path52"
         style="fill:#00acd3;fill-opacity:1;fill-rule:evenodd;stroke:none"
         d="m 276.572,399.494 37.004,0 0,-37.004 -37.004,0 0,37.004 z m 3.084,-3.084 2.918,0 0,-30.838 -2.918,0 0,30.838 z m 5.489,0 3.037,0 0,-30.838 -3.037,0 0,30.838 z m 5.607,0 3.037,0 0,-30.838 -3.037,0 0,30.838 z m 5.607,0 3.037,0 0,-30.838 -3.037,0 0,30.838 z m 5.606,0 3.039,0 0,-30.838 -3.039,0 0,30.838 z m 5.607,0 2.92,0 0,-30.838 -2.92,0 0,30.838 z" /><path
         inkscape:connector-curvature="0"
         id="path54"
         style="fill:#20c2ef;fill-opacity:1;fill-rule:evenodd;stroke:none"
         d="m 276.572,442.189 37.004,0 0,-37.003 -37.004,0 0,37.003 z m 3.084,-3.084 2.918,0 0,-30.836 -2.918,0 0,30.836 z m 5.489,0 3.037,0 0,-30.836 -3.037,0 0,30.836 z m 5.607,0 3.037,0 0,-30.836 -3.037,0 0,30.836 z m 5.607,0 3.037,0 0,-30.836 -3.037,0 0,30.836 z m 5.606,0 3.039,0 0,-30.836 -3.039,0 0,30.836 z m 5.607,0 2.92,0 0,-30.836 -2.92,0 0,30.836 z" /><path
         inkscape:connector-curvature="0"
         id="path56"
         style="fill:#20c2ef;fill-opacity:1;fill-rule:evenodd;stroke:none"
         d="m 319.268,399.494 37.004,0 0,-37.004 -37.004,0 0,37.004 z m 3.084,-3.084 2.92,0 0,-30.838 -2.92,0 0,30.838 z m 5.49,0 3.037,0 0,-30.838 -3.037,0 0,30.838 z m 5.605,0 3.037,0 0,-30.838 -3.037,0 0,30.838 z m 5.608,0 3.037,0 0,-30.838 -3.037,0 0,30.838 z m 5.607,0 3.037,0 0,-30.838 -3.037,0 0,30.838 z m 5.606,0 2.922,0 0,-30.838 -2.922,0 0,30.838 z" /><path
         inkscape:connector-curvature="0"
         id="path58"
         style="fill:#00acd3;fill-opacity:1;fill-rule:evenodd;stroke:none"
         d="m 319.268,442.189 37.004,0 0,-37.003 -37.004,0 0,37.003 z m 3.084,-3.084 2.92,0 0,-30.836 -2.92,0 0,30.836 z m 5.49,0 3.037,0 0,-30.836 -3.037,0 0,30.836 z m 5.605,0 3.037,0 0,-30.836 -3.037,0 0,30.836 z m 5.608,0 3.037,0 0,-30.836 -3.037,0 0,30.836 z m 5.607,0 3.037,0 0,-30.836 -3.037,0 0,30.836 z m 5.606,0 2.922,0 0,-30.836 -2.922,0 0,30.836 z" /><path
         inkscape:connector-curvature="0"
         id="path60"
         style="fill:#20c2ef;fill-opacity:1;fill-rule:evenodd;stroke:none"
         d="m 319.268,484.885 37.004,0 0,-37.004 -37.004,0 0,37.004 z m 3.084,-3.082 2.92,0 0,-30.838 -2.92,0 0,30.838 z m 5.49,0 3.037,0 0,-30.838 -3.037,0 0,30.838 z m 5.605,0 3.037,0 0,-30.838 -3.037,0 0,30.838 z m 5.608,0 3.037,0 0,-30.838 -3.037,0 0,30.838 z m 5.607,0 3.037,0 0,-30.838 -3.037,0 0,30.838 z m 5.606,0 2.922,0 0,-30.838 -2.922,0 0,30.838 z" /><path
         inkscape:connector-curvature="0"
         id="path62"
         style="fill:#00acd3;fill-opacity:1;fill-rule:evenodd;stroke:none"
         d="m 361.963,399.494 37.004,0 0,-37.004 -37.004,0 0,37.004 z m 3.082,-3.084 2.922,0 0,-30.838 -2.922,0 0,30.838 z m 5.49,0 3.037,0 0,-30.838 -3.037,0 0,30.838 z m 5.608,0 3.037,0 0,-30.838 -3.037,0 0,30.838 z m 5.605,0 3.037,0 0,-30.838 -3.037,0 0,30.838 z m 5.609,0 3.035,0 0,-30.838 -3.035,0 0,30.838 z m 5.606,0 2.92,0 0,-30.838 -2.92,0 0,30.838 z" /><g
         transform="translate(268.5645,302.4961)"
         id="g64"><path
           inkscape:connector-curvature="0"
           id="path66"
           style="fill:#d4edf1;fill-opacity:1;fill-rule:evenodd;stroke:none"
           d="m 0,0 c 5.637,0 10.207,-4.572 10.207,-10.209 0,-5.637 -4.57,-10.207 -10.207,-10.207 -5.639,0 -10.209,4.57 -10.209,10.207 C -10.209,-4.572 -5.639,0 0,0" /></g><g
         transform="translate(268.5645,299.5996)"
         id="g68"><path
           inkscape:connector-curvature="0"
           id="path70"
           style="fill:#394d54;fill-opacity:1;fill-rule:evenodd;stroke:none"
           d="M 0,0 C 0.934,0 1.824,-0.176 2.646,-0.494 1.756,-1.01 1.152,-1.975 1.152,-3.078 c 0,-1.649 1.336,-2.983 2.985,-2.983 1.129,0 2.109,0.627 2.617,1.553 0.357,-0.863 0.557,-1.81 0.557,-2.805 0,-4.037 -3.274,-7.31 -7.311,-7.31 -4.037,0 -7.313,3.273 -7.313,7.31 C -7.313,-3.273 -4.037,0 0,0" /></g><g
         transform="translate(88,323.6504)"
         id="g72"><path
           inkscape:connector-curvature="0"
           id="path74"
           style="fill:#394d54;fill-opacity:1;fill-rule:evenodd;stroke:none"
           d="M 0,0 223.613,0 251.27,0 474.877,0 C 464.537,2.623 442.162,6.166 445.852,19.717 427.051,-2.039 381.709,4.453 370.266,15.182 357.523,-3.301 283.34,3.725 278.166,18.123 262.191,-0.625 212.689,-0.625 196.713,18.123 191.537,3.725 117.355,-3.301 104.611,15.182 93.168,4.453 47.83,-2.039 29.027,19.717 32.717,6.166 10.342,2.623 0,0" /></g><g
         transform="translate(295.7012,228.9316)"
         id="g76"><path
           inkscape:connector-curvature="0"
           id="path78"
           style="fill:#bfdbe0;fill-opacity:1;fill-rule:nonzero;stroke:none"
           d="m 0,0 c -25.281,11.997 -39.158,28.306 -46.879,46.109 -9.391,-2.68 -20.68,-4.393 -33.795,-5.13 -4.941,-0.277 -10.139,-0.418 -15.594,-0.418 -6.287,0 -12.914,0.185 -19.869,0.554 23.184,-23.17 51.705,-41.01 104.516,-41.336 3.898,0 7.769,0.076 11.621,0.221" /></g><g
         transform="translate(258.2129,258.6133)"
         id="g80"><path
           inkscape:connector-curvature="0"
           id="path82"
           style="fill:#d4edf1;fill-opacity:1;fill-rule:nonzero;stroke:none"
           d="M 0,0 C -3.498,4.748 -6.891,10.715 -9.385,16.43 -18.777,13.748 -30.068,12.034 -43.186,11.298 -34.176,6.406 -21.289,1.875 0,0" /></g></g></g></svg>