<?xml version="1.0" encoding="UTF-8" standalone="no"?>
<!-- Created with Inkscape (http://www.inkscape.org/) -->

<svg
   xmlns:dc="http://purl.org/dc/elements/1.1/"
   xmlns:cc="http://creativecommons.org/ns#"
   xmlns:rdf="http://www.w3.org/1999/02/22-rdf-syntax-ns#"
   xmlns:svg="http://www.w3.org/2000/svg"
   xmlns="http://www.w3.org/2000/svg"
   xmlns:sodipodi="http://sodipodi.sourceforge.net/DTD/sodipodi-0.dtd"
   xmlns:inkscape="http://www.inkscape.org/namespaces/inkscape"
   id="svg2"
   version="1.1"
   inkscape:version="0.48.5 r10040"
   width="350.82001"
   height="350.82001"
   xml:space="preserve"
   sodipodi:docname="gopher_stickers.ai.svg"><metadata
     id="metadata8"><rdf:RDF><cc:Work
         rdf:about=""><dc:format>image/svg+xml</dc:format><dc:type
           rdf:resource="http://purl.org/dc/dcmitype/StillImage" /><dc:title></dc:title></cc:Work></rdf:RDF></metadata><defs
     id="defs6"><clipPath
       clipPathUnits="userSpaceOnUse"
       id="clipPath16"><path
         d="m 0,4400 1670,0 L 1670,0 0,0 0,4400 z"
         id="path18"
         inkscape:connector-curvature="0" /></clipPath><clipPath
       clipPathUnits="userSpaceOnUse"
       id="clipPath1098"><path
         d="m 0,4400 1670,0 L 1670,0 0,0 0,4400 z"
         id="path1100"
         inkscape:connector-curvature="0" /></clipPath><clipPath
       clipPathUnits="userSpaceOnUse"
       id="clipPath1592"><path
         d="m 0,4400 1670,0 L 1670,0 0,0 0,4400 z"
         id="path1594"
         inkscape:connector-curvature="0" /></clipPath><clipPath
       clipPathUnits="userSpaceOnUse"
       id="clipPath2178"><path
         d="m 0,4400 1670,0 L 1670,0 0,0 0,4400 z"
         id="path2180"
         inkscape:connector-curvature="0" /></clipPath><clipPath
       clipPathUnits="userSpaceOnUse"
       id="clipPath2202"><path
         d="m 0,4400 1670,0 L 1670,0 0,0 0,4400 z"
         id="path2204"
         inkscape:connector-curvature="0" /></clipPath><clipPath
       clipPathUnits="userSpaceOnUse"
       id="clipPath2884"><path
         d="m 0,4400 1670,0 L 1670,0 0,0 0,4400 z"
         id="path2886"
         inkscape:connector-curvature="0" /></clipPath><clipPath
       clipPathUnits="userSpaceOnUse"
       id="clipPath2936"><path
         d="m 0,4400 1670,0 L 1670,0 0,0 0,4400 z"
         id="path2938"
         inkscape:connector-curvature="0" /></clipPath><clipPath
       clipPathUnits="userSpaceOnUse"
       id="clipPath5214"><path
         d="m 1308.875,982.367 c 0,-6.644 5.387,-12.032 12.032,-12.032 l 0,0 c 6.646,0 12.032,5.388 12.032,12.032 l 0,0 c 0,6.646 -5.386,12.033 -12.032,12.033 l 0,0 c -6.645,0 -12.032,-5.387 -12.032,-12.033"
         id="path5216"
         inkscape:connector-curvature="0" /></clipPath><clipPath
       clipPathUnits="userSpaceOnUse"
       id="clipPath5234"><path
         d="m 0,4400 1670,0 L 1670,0 0,0 0,4400 z"
         id="path5236"
         inkscape:connector-curvature="0" /></clipPath><clipPath
       clipPathUnits="userSpaceOnUse"
       id="clipPath5610"><path
         d="m 0,4400 1670,0 L 1670,0 0,0 0,4400 z"
         id="path5612"
         inkscape:connector-curvature="0" /></clipPath></defs><sodipodi:namedview
     pagecolor="#ffffff"
     bordercolor="#666666"
     borderopacity="1"
     objecttolerance="10"
     gridtolerance="10"
     guidetolerance="10"
     inkscape:pageopacity="0"
     inkscape:pageshadow="2"
     inkscape:window-width="1366"
     inkscape:window-height="707"
     id="namedview4"
     showgrid="false"
     inkscape:zoom="1.0446607"
     inkscape:cx="370.83296"
     inkscape:cy="203.20469"
     inkscape:window-x="-2"
     inkscape:window-y="-3"
     inkscape:window-maximized="1"
     inkscape:current-layer="g10" /><g
     id="g10"
     inkscape:groupmode="layer"
     inkscape:label="gopher_stickers"
     transform="matrix(1.25,0,0,-1.25,0,350.82)"><g
       id="g488"
       transform="translate(29.9614,3826.2458)"><path
         d="m 0,0 c 0,-1.91 1.549,-3.459 3.459,-3.459 1.91,0 3.459,1.549 3.459,3.459 0,1.91 -1.549,3.459 -3.459,3.459 C 1.549,3.459 0,1.91 0,0"
         style="fill:#ffffff;fill-opacity:1;fill-rule:nonzero;stroke:none"
         id="path490"
         inkscape:connector-curvature="0" /></g><g
       id="g12037"
       transform="matrix(1.0000009,0,0,0.99999857,-97.764036,-3693.1622)"><g
         transform="translate(327.0495,3906.9565)"
         id="g448"><path
           inkscape:connector-curvature="0"
           id="path450"
           style="fill:#8ac4e6;fill-opacity:1;fill-rule:nonzero;stroke:none"
           d="m 0,0 c -6.384,13.145 -21.953,1.543 -25.913,5.633 -20.105,20.764 -44.481,25.908 -63.658,26.856 0,0 -8.651,0.048 -10.574,0 -19.195,-0.474 -43.553,-6.092 -63.658,-26.856 -3.96,-4.09 -19.529,7.512 -25.913,-5.633 -7.434,-15.305 15.091,-16.905 13.895,-23.66 -2.172,-12.273 -0.739,-30.523 0.931,-48.481 2.83,-30.424 -19.93,-103.276 27.444,-132.537 8.943,-5.524 32.992,-8.671 53.94,-9.107 l 0,-0.004 c 0.029,0 0.058,10e-4 0.087,0.002 0.029,-0.001 0.058,-0.002 0.087,-0.002 l 0,0.004 c 20.948,0.436 42.118,3.583 51.062,9.107 47.374,29.261 24.614,102.113 27.444,132.537 1.67,17.958 3.103,36.208 0.93,48.481 C -15.091,-16.905 7.434,-15.305 0,0" /></g><g
         transform="translate(265.5919,3897.6311)"
         id="g452"><path
           inkscape:connector-curvature="0"
           id="path454"
           style="fill:#dfdcdb;fill-opacity:1;fill-rule:nonzero;stroke:none"
           d="m 0,0 c -32.022,-3.718 -27.701,-37.168 -15.352,-47.974 23.028,-20.149 47.015,0 44.376,20.389 C 26.493,-8.026 9.944,1.155 0,0" /></g><g
         transform="translate(278.679,3868.8625)"
         id="g456"><path
           inkscape:connector-curvature="0"
           id="path458"
           style="fill:#111111;fill-opacity:1;fill-rule:nonzero;stroke:none"
           d="m 0,0 c 0,-6.061 -4.913,-10.974 -10.975,-10.974 -6.061,0 -10.974,4.913 -10.974,10.974 0,6.061 4.913,10.975 10.974,10.975 C -4.913,10.975 0,6.061 0,0" /></g><g
         transform="translate(268.2851,3873.5227)"
         id="g460"><path
           inkscape:connector-curvature="0"
           id="path462"
           style="fill:#ffffff;fill-opacity:1;fill-rule:nonzero;stroke:none"
           d="m 0,0 c 0,-1.91 -1.549,-3.459 -3.459,-3.459 -1.91,0 -3.459,1.549 -3.459,3.459 0,1.91 1.549,3.459 3.459,3.459 C -1.549,3.459 0,1.91 0,0" /></g><g
         transform="translate(232.2829,3847.0444)"
         id="g464"><path
           inkscape:connector-curvature="0"
           id="path466"
           style="fill:#b6927f;fill-opacity:1;fill-rule:nonzero;stroke:none"
           d="M 0,0 C -15.333,-2.268 -20.81,-6.692 -19.639,-13.647 -17.732,-24.975 18.5,-23.707 19.567,-14.225 20.487,-6.05 5.983,0.885 0,0" /></g><g
         transform="translate(222.3486,3842.4807)"
         id="g468"><path
           inkscape:connector-curvature="0"
           id="path470"
           style="fill:#231815;fill-opacity:1;fill-rule:nonzero;stroke:none"
           d="M 0,0 C -2.602,-9.447 20.817,-8.004 20.239,-1.93 19.905,1.582 16.769,6.171 8.442,5.896 5.206,5.789 1.212,4.401 0,0" /></g><g
         transform="translate(223.0946,3827.1899)"
         id="g472"><path
           inkscape:connector-curvature="0"
           id="path474"
           style="fill:#dfdcdb;fill-opacity:1;fill-rule:nonzero;stroke:none"
           d="m 0,0 c -0.84,-0.376 -2.279,-9.755 2.079,-10.234 2.978,-0.328 11.126,-1.263 13.033,-0.04 3.742,2.398 3.318,8.195 1.239,9.594 C 12.885,1.653 0.998,0.446 0,0" /></g><g
         transform="translate(198.791,3897.6311)"
         id="g476"><path
           inkscape:connector-curvature="0"
           id="path478"
           style="fill:#dfdcdb;fill-opacity:1;fill-rule:nonzero;stroke:none"
           d="m 0,0 c 32.022,-3.718 27.701,-37.168 15.352,-47.974 -23.028,-20.149 -47.015,0 -44.376,20.389 C -26.493,-8.026 -9.944,1.155 0,0" /></g><g
         transform="translate(185.7038,3868.8625)"
         id="g480"><path
           inkscape:connector-curvature="0"
           id="path482"
           style="fill:#111111;fill-opacity:1;fill-rule:nonzero;stroke:none"
           d="m 0,0 c 0,-6.061 4.913,-10.974 10.975,-10.974 6.061,0 10.974,4.913 10.974,10.974 0,6.061 -4.913,10.975 -10.974,10.975 C 4.913,10.975 0,6.061 0,0" /></g><g
         transform="translate(196.0977,3873.5227)"
         id="g484"><path
           inkscape:connector-curvature="0"
           id="path486"
           style="fill:#ffffff;fill-opacity:1;fill-rule:nonzero;stroke:none"
           d="m 0,0 c 0,-1.91 1.549,-3.459 3.459,-3.459 1.91,0 3.459,1.549 3.459,3.459 0,1.91 -1.549,3.459 -3.459,3.459 C 1.549,3.459 0,1.91 0,0" /></g><g
         transform="translate(309.084,3904.6377)"
         id="g492"><path
           inkscape:connector-curvature="0"
           id="path494"
           style="fill:#3a88bd;fill-opacity:1;fill-rule:nonzero;stroke:none"
           d="m 0,0 c -0.558,-2.047 2.043,-1.774 3.017,-7.931 0.357,-2.26 8.597,3.338 5.254,7.493 C 5.53,2.97 0.544,1.998 0,0" /></g><g
         transform="translate(155.2989,3904.6377)"
         id="g496"><path
           inkscape:connector-curvature="0"
           id="path498"
           style="fill:#3a88bd;fill-opacity:1;fill-rule:nonzero;stroke:none"
           d="m 0,0 c 0.558,-2.047 -2.043,-1.774 -3.017,-7.931 -0.357,-2.26 -8.597,3.338 -5.254,7.493 C -5.53,2.97 -0.544,1.998 0,0" /></g><g
         transform="translate(311.2776,3813.7813)"
         id="g500"><path
           inkscape:connector-curvature="0"
           id="path502"
           style="fill:#8ac4e6;fill-opacity:1;fill-rule:nonzero;stroke:none"
           d="m 0,0 c 0.073,-35.153 9.306,4.898 13.238,10.031 3.933,5.133 3.05,12.414 -1.972,16.261 C 6.244,30.139 3.617,19.188 -3.724,18.096 -12.841,16.739 -0.012,5.573 0,0" /></g><g
         transform="translate(321.3549,3832.5029)"
         id="g504"><path
           inkscape:connector-curvature="0"
           id="path506"
           style="fill:#b6927f;fill-opacity:1;fill-rule:nonzero;stroke:none"
           d="m 0,0 c -3.691,3.407 -5.65,9.119 -0.607,13.138 6.111,4.87 11.998,4.916 9.824,1.536 -0.745,-1.159 3.576,1.914 4.744,0.836 C 17.652,12.102 17.114,5.516 12.759,0.799 8.404,-3.919 3.691,-3.407 0,0" /></g><g
         transform="translate(154.1988,3799.9475)"
         id="g508"><path
           inkscape:connector-curvature="0"
           id="path510"
           style="fill:#8ac4e6;fill-opacity:1;fill-rule:nonzero;stroke:none"
           d="m 0,0 c 7.105,34.427 -10.11,-2.895 -15.007,-7.117 -4.898,-4.223 -5.52,-11.53 -1.389,-16.321 4.131,-4.792 8.938,5.392 16.348,4.963 C 9.154,-19.008 -1.126,-5.458 0,0" /></g><g
         transform="translate(140.5865,3783.4954)"
         id="g512"><path
           inkscape:connector-curvature="0"
           id="path514"
           style="fill:#b6927f;fill-opacity:1;fill-rule:nonzero;stroke:none"
           d="m 0,0 c 2.726,-4.219 3.202,-10.239 -2.683,-12.875 -7.131,-3.196 -12.845,-1.774 -9.897,0.958 1.01,0.937 -3.94,-0.964 -4.803,0.372 -2.726,4.219 -0.565,10.464 4.827,13.948 C -7.163,5.887 -2.726,4.219 0,0" /></g><g
         transform="translate(276.2277,3700.6653)"
         id="g516"><path
           inkscape:connector-curvature="0"
           id="path518"
           style="fill:#b6927f;fill-opacity:1;fill-rule:nonzero;stroke:none"
           d="m 0,0 c 3.262,9.203 14.721,6.652 22.096,1.653 1.978,-1.34 3.029,-2.021 1.042,-3.9 C 21.805,-3.507 18.759,-3.148 19.085,-3.8 20.369,-6.374 9.394,-6.65 2.486,-5.386 -0.709,-4.802 -1.087,-3.065 0,0" /></g><g
         transform="translate(188.1551,3700.6653)"
         id="g520"><path
           inkscape:connector-curvature="0"
           id="path522"
           style="fill:#b6927f;fill-opacity:1;fill-rule:nonzero;stroke:none"
           d="m 0,0 c -3.262,9.203 -14.721,6.652 -22.096,1.653 -1.978,-1.34 -3.029,-2.021 -1.042,-3.9 1.333,-1.26 4.379,-0.901 4.053,-1.553 -1.284,-2.574 9.691,-2.85 16.599,-1.586 C 0.709,-4.802 1.087,-3.065 0,0" /></g><g
         transform="translate(311.2776,3813.7813)"
         id="g524"><path
           inkscape:connector-curvature="0"
           id="path526"
           style="fill:#8ac4e6;fill-opacity:1;fill-rule:nonzero;stroke:none"
           d="m 0,0 c 0.073,-35.153 9.306,4.898 13.238,10.031 3.933,5.133 3.05,12.414 -1.972,16.261 C 6.244,30.139 3.617,19.188 -3.724,18.096 -12.841,16.739 -0.012,5.573 0,0" /></g><g
         transform="translate(321.3549,3832.5029)"
         id="g528"><path
           inkscape:connector-curvature="0"
           id="path530"
           style="fill:#b6927f;fill-opacity:1;fill-rule:nonzero;stroke:none"
           d="m 0,0 c -3.691,3.407 -5.65,9.119 -0.607,13.138 6.111,4.87 11.998,4.916 9.824,1.536 -0.745,-1.159 3.576,1.914 4.744,0.836 C 17.652,12.102 17.114,5.516 12.759,0.799 8.404,-3.919 3.691,-3.407 0,0" /></g><g
         transform="translate(154.1988,3799.9475)"
         id="g532"><path
           inkscape:connector-curvature="0"
           id="path534"
           style="fill:#8ac4e6;fill-opacity:1;fill-rule:nonzero;stroke:none"
           d="m 0,0 c 7.105,34.427 -10.11,-2.895 -15.007,-7.117 -4.898,-4.223 -5.52,-11.53 -1.389,-16.321 4.131,-4.792 8.938,5.392 16.348,4.963 C 9.154,-19.008 -1.126,-5.458 0,0" /></g><g
         transform="translate(140.5865,3783.4954)"
         id="g536"><path
           inkscape:connector-curvature="0"
           id="path538"
           style="fill:#b6927f;fill-opacity:1;fill-rule:nonzero;stroke:none"
           d="m 0,0 c 2.726,-4.219 3.202,-10.239 -2.683,-12.875 -7.131,-3.196 -12.845,-1.774 -9.897,0.958 1.01,0.937 -3.94,-0.964 -4.803,0.372 -2.726,4.219 -0.565,10.464 4.827,13.948 C -7.163,5.887 -2.726,4.219 0,0" /></g><g
         transform="translate(276.2277,3700.6653)"
         id="g540"><path
           inkscape:connector-curvature="0"
           id="path542"
           style="fill:#b6927f;fill-opacity:1;fill-rule:nonzero;stroke:none"
           d="m 0,0 c 3.262,9.203 14.721,6.652 22.096,1.653 1.978,-1.34 3.029,-2.021 1.042,-3.9 C 21.805,-3.507 18.759,-3.148 19.085,-3.8 20.369,-6.374 9.394,-6.65 2.486,-5.386 -0.709,-4.802 -1.087,-3.065 0,0" /></g><g
         transform="translate(188.1551,3700.6653)"
         id="g544"><path
           inkscape:connector-curvature="0"
           id="path546"
           style="fill:#b6927f;fill-opacity:1;fill-rule:nonzero;stroke:none"
           d="m 0,0 c -3.262,9.203 -14.721,6.652 -22.096,1.653 -1.978,-1.34 -3.029,-2.021 -1.042,-3.9 1.333,-1.26 4.379,-0.901 4.053,-1.553 -1.284,-2.574 9.691,-2.85 16.599,-1.586 C 0.709,-4.802 1.087,-3.065 0,0" /></g><g
         transform="translate(343.4773,3822.2456)"
         id="g3704"><path
           inkscape:connector-curvature="0"
           id="path3706"
           style="fill:none;stroke:#111111;stroke-width:5.78399992;stroke-linecap:round;stroke-linejoin:miter;stroke-miterlimit:10;stroke-opacity:1;stroke-dasharray:none"
           d="M 0,0 C 0,0 7.86,-16.735 -4.417,-30.236" /></g><g
         transform="translate(330.4503,3820.0911)"
         id="g3708"><path
           inkscape:connector-curvature="0"
           id="path3710"
           style="fill:none;stroke:#111111;stroke-width:5.78399992;stroke-linecap:round;stroke-linejoin:miter;stroke-miterlimit:10;stroke-opacity:1;stroke-dasharray:none"
           d="M 0,0 C 0,0 8.405,-9.44 -3.871,-22.94" /></g><g
         transform="translate(330.4503,3820.0911)"
         id="g3712"><path
           inkscape:connector-curvature="0"
           id="path3714"
           style="fill:none;stroke:#111111;stroke-width:5.78399992;stroke-linecap:round;stroke-linejoin:miter;stroke-miterlimit:10;stroke-opacity:1;stroke-dasharray:none"
           d="M 0,0 C 0,0 8.405,-9.44 -3.871,-22.94" /></g><g
         transform="translate(328.5972,3956.4873)"
         id="g3740"><path
           inkscape:connector-curvature="0"
           id="path3742"
           style="fill:none;stroke:#3a88bd;stroke-width:6.829;stroke-linecap:round;stroke-linejoin:miter;stroke-miterlimit:10;stroke-opacity:1;stroke-dasharray:none"
           d="M 0,0 -14.721,-21.186" /></g><g
         transform="translate(302.5056,3970.4126)"
         id="g3744"><path
           inkscape:connector-curvature="0"
           id="path3746"
           style="fill:none;stroke:#3a88bd;stroke-width:6.829;stroke-linecap:round;stroke-linejoin:miter;stroke-miterlimit:10;stroke-opacity:1;stroke-dasharray:none"
           d="M 0,0 -8.544,-25.478" /></g><g
         transform="translate(350.748,3936.8906)"
         id="g3748"><path
           inkscape:connector-curvature="0"
           id="path3750"
           style="fill:none;stroke:#3a88bd;stroke-width:6.829;stroke-linecap:round;stroke-linejoin:miter;stroke-miterlimit:10;stroke-opacity:1;stroke-dasharray:none"
           d="M 0,0 -20.898,-16.894" /></g></g></g></svg>