<?xml version="1.0" encoding="UTF-8" standalone="no"?>
<!-- Created with Inkscape (http://www.inkscape.org/) -->

<svg
   xmlns:dc="http://purl.org/dc/elements/1.1/"
   xmlns:cc="http://creativecommons.org/ns#"
   xmlns:rdf="http://www.w3.org/1999/02/22-rdf-syntax-ns#"
   xmlns:svg="http://www.w3.org/2000/svg"
   xmlns="http://www.w3.org/2000/svg"
   version="1.1"
   width="64.32"
   height="64.32"
   id="svg2"
   xml:space="preserve"><metadata
     id="metadata8"><rdf:RDF><cc:Work
         rdf:about=""><dc:format>image/svg+xml</dc:format><dc:type
           rdf:resource="http://purl.org/dc/dcmitype/StillImage" /><dc:title></dc:title></cc:Work></rdf:RDF></metadata><defs
     id="defs6"><clipPath
       id="clipPath18"><path
         d="m 0,0 2783.57,0 0,707 L 0,707 0,0 z"
         id="path20" /></clipPath></defs><g
     transform="matrix(1.25,0,0,-1.25,0,64.32)"
     id="g10"><g
       transform="matrix(1.0000051,0,0,1.0000067,0,-18.43566)"
       id="g3150"><path
         d="M 3.26992,57.3051 C -1.28711,50.7582 -0.723828,42.2406 2.76289,35.2836 2.84062,35.1137 2.93047,34.9531 3.01602,34.7891 3.06484,34.6828 3.1207,34.5762 3.18047,34.4719 3.20664,34.4141 3.24766,34.3508 3.28125,34.2945 3.3375,34.1809 3.39688,34.0762 3.45664,33.968 c 0.11211,-0.1887 0.22383,-0.3805 0.33594,-0.5676 0.06328,-0.1043 0.12344,-0.209 0.19414,-0.3133 0.11914,-0.2019 0.25742,-0.4012 0.38086,-0.6027 0.05586,-0.086 0.1082,-0.1699 0.16797,-0.2539 0.1789,-0.2727 0.35859,-0.5414 0.55625,-0.8063 0,-0.0078 0.00742,-0.0148 0.01484,-0.0183 0.02969,-0.045 0.06328,-0.0879 0.09297,-0.1289 0.16797,-0.2297 0.33594,-0.4536 0.51172,-0.6758 0.05976,-0.0821 0.12656,-0.1641 0.18672,-0.2442 0.16015,-0.1945 0.31718,-0.3882 0.47343,-0.5804 0.06016,-0.0692 0.11954,-0.1422 0.18321,-0.2129 0.20898,-0.252 0.42929,-0.502 0.65351,-0.7489 0,-0.0031 0.00703,-0.0086 0.01094,-0.0144 0.00742,-0.0094 0.01484,-0.0188 0.02969,-0.0277 0.2164,-0.2375 0.43672,-0.4704 0.66094,-0.702 0.0707,-0.0711 0.1414,-0.1398 0.21992,-0.2148 0.17148,-0.1739 0.34336,-0.3489 0.52656,-0.5204 0.07461,-0.0714 0.14883,-0.1402 0.22031,-0.2089 0.23867,-0.2243 0.47735,-0.4485 0.72735,-0.6625 0.0039,-0.0039 0.00781,-0.0063 0.01132,-0.0094 0.04102,-0.0356 0.08594,-0.0715 0.12344,-0.1067 0.21992,-0.1882 0.44063,-0.375 0.66403,-0.5597 0.0899,-0.075 0.1793,-0.1457 0.2692,-0.2184 0.1867,-0.1476 0.373,-0.289 0.5593,-0.4312 0.0973,-0.0727 0.1946,-0.1473 0.2954,-0.2242 0.2015,-0.1508 0.4105,-0.2981 0.6156,-0.4438 0.0746,-0.0543 0.1492,-0.1086 0.2277,-0.1586 0.0188,-0.0168 0.041,-0.0316 0.0598,-0.0469 0.2051,-0.1343 0.3992,-0.2648 0.6012,-0.3976 0.089,-0.0574 0.1753,-0.1137 0.2613,-0.1711 0.3133,-0.2 0.6266,-0.3922 0.9367,-0.5789 0.0895,-0.0469 0.1789,-0.0973 0.2649,-0.1473 0.2312,-0.1344 0.4667,-0.2672 0.7054,-0.3941 0.1305,-0.0727 0.2613,-0.1364 0.3953,-0.2032 0.161,-0.0878 0.3289,-0.1773 0.5008,-0.2652 0.041,-0.0164 0.082,-0.0316 0.1192,-0.0519 0.0707,-0.0321 0.1378,-0.0676 0.205,-0.1008 0.2617,-0.1289 0.5301,-0.2504 0.8067,-0.3735 0.0519,-0.0246 0.1078,-0.0464 0.164,-0.0746 0.3094,-0.1343 0.6196,-0.2632 0.9368,-0.3882 0.075,-0.0278 0.1492,-0.0618 0.2277,-0.0876 0.2875,-0.1121 0.5859,-0.2222 0.8808,-0.3285 0.0375,-0.0152 0.0707,-0.0265 0.1083,-0.039 0.3285,-0.1125 0.6531,-0.2184 0.9855,-0.3215 0.0781,-0.0223 0.1566,-0.05 0.2387,-0.0707 0.3398,-0.1024 0.6679,-0.2223 1.0152,-0.2875 22.0328,-4.016 28.434,13.241 28.434,13.241 -5.3781,-7 -14.9223,-8.8496 -23.9621,-6.793 -0.3363,0.0762 -0.6684,0.1828 -1.0078,0.284 -0.0789,0.0223 -0.1684,0.0481 -0.2469,0.0762 -0.3281,0.0988 -0.6527,0.2055 -0.9699,0.3137 -0.045,0.0148 -0.0934,0.0312 -0.1383,0.0503 -0.2871,0.0989 -0.5707,0.2071 -0.8547,0.3168 -0.0785,0.034 -0.1605,0.0622 -0.2391,0.0918 -0.3136,0.1231 -0.623,0.2555 -0.9254,0.3883 -0.0671,0.0239 -0.1234,0.0524 -0.1871,0.0781 -0.2644,0.1215 -0.5183,0.2407 -0.7761,0.3641 -0.0782,0.0336 -0.1493,0.0711 -0.2278,0.1102 -0.2015,0.0953 -0.4027,0.2015 -0.6004,0.3062 -0.1382,0.0707 -0.273,0.136 -0.4035,0.2086 -0.2426,0.1305 -0.4851,0.2688 -0.7277,0.4031 -0.075,0.0508 -0.157,0.0938 -0.243,0.1403 -0.3133,0.1863 -0.6308,0.3789 -0.9402,0.5765 -0.0895,0.0563 -0.1719,0.1121 -0.2539,0.17 -0.2278,0.1433 -0.452,0.2949 -0.6719,0.4441 -0.0711,0.0504 -0.1418,0.1027 -0.2164,0.1551 -0.2129,0.1492 -0.4219,0.3 -0.6344,0.4554 -0.0898,0.0707 -0.1832,0.1414 -0.2801,0.2125 -0.1906,0.1473 -0.3808,0.293 -0.571,0.4461 -0.0825,0.0688 -0.1676,0.1364 -0.2504,0.2032 -0.2461,0.1976 -0.4774,0.3961 -0.7129,0.6011 -0.0223,0.0243 -0.0555,0.045 -0.0821,0.0653 -0.25,0.2238 -0.5,0.4531 -0.7464,0.6812 -0.0747,0.0707 -0.1375,0.1363 -0.2125,0.2035 -0.179,0.1754 -0.3582,0.3469 -0.5336,0.5246 -0.0746,0.0743 -0.1422,0.1434 -0.2129,0.2141 -0.2242,0.2262 -0.4446,0.4594 -0.6606,0.6981 -0.0113,0.0097 -0.0226,0.0203 -0.034,0.0335 -0.2273,0.25 -0.4476,0.504 -0.6675,0.7618 -0.0602,0.0687 -0.1161,0.1398 -0.1754,0.207 -0.161,0.1977 -0.3215,0.3977 -0.4856,0.5953 -0.0519,0.0766 -0.1121,0.1492 -0.1718,0.2242 -0.1903,0.2446 -0.3731,0.4887 -0.55591,0.7407 -5.0168,6.8437 -6.82695,16.2886 -2.81406,24.039"
         id="path56"
         style="fill:#2e64b3;fill-opacity:1;fill-rule:nonzero;stroke:none" /><path
         d="m 17.4164,62.8238 c -3.3035,-4.7402 -3.1203,-11.0875 -0.5488,-16.1035 0.4254,-0.8398 0.9105,-1.6558 1.4554,-2.4301 0.493,-0.709 1.0379,-1.5488 1.6985,-2.1183 0.2312,-0.2614 0.4812,-0.5153 0.739,-0.7703 0.0637,-0.0637 0.1274,-0.1258 0.1942,-0.1926 0.2465,-0.2367 0.4965,-0.4703 0.7539,-0.6977 0.0078,-0.0097 0.0223,-0.0191 0.0301,-0.0285 0.0035,-0.0019 0.0074,-0.0051 0.0074,-0.0051 0.2871,-0.2539 0.5785,-0.4949 0.8809,-0.73 0.0707,-0.0504 0.1343,-0.1067 0.205,-0.1567 0.2989,-0.2336 0.6051,-0.457 0.9145,-0.6773 0.0113,-0.0039 0.0187,-0.0114 0.034,-0.0172 0.134,-0.0969 0.2757,-0.1863 0.4215,-0.2797 0.0632,-0.041 0.1304,-0.0895 0.1941,-0.1289 0.2273,-0.1477 0.4516,-0.2852 0.6828,-0.4219 0.034,-0.0168 0.0672,-0.0351 0.1008,-0.0519 0.1941,-0.1176 0.3992,-0.2332 0.6051,-0.3379 0.0707,-0.043 0.1414,-0.0766 0.2125,-0.1157 0.1418,-0.0707 0.2836,-0.1453 0.4215,-0.2183 0.0187,-0.0098 0.0453,-0.0203 0.0675,-0.0301 0.291,-0.1437 0.586,-0.2758 0.877,-0.4086 0.0707,-0.0281 0.1308,-0.0523 0.1976,-0.0801 0.2395,-0.1027 0.4817,-0.2039 0.7207,-0.2949 0.1079,-0.0359 0.209,-0.0781 0.3098,-0.114 0.2199,-0.0782 0.4441,-0.1547 0.6645,-0.2274 0.1078,-0.0355 0.205,-0.0656 0.3023,-0.0973 0.3133,-0.0992 0.6309,-0.2261 0.9629,-0.2777 17.0055,-2.8203 20.9394,10.2793 20.9394,10.2793 -3.5421,-5.1027 -10.3992,-7.5324 -17.7144,-5.6328 -0.3285,0.084 -0.6492,0.1777 -0.9633,0.2801 -0.1008,0.0261 -0.1898,0.0578 -0.2871,0.0914 -0.2277,0.0726 -0.4559,0.1496 -0.6758,0.2316 -0.1008,0.0371 -0.2051,0.0746 -0.3058,0.1137 -0.2426,0.0949 -0.4852,0.1883 -0.7207,0.293 -0.0707,0.0281 -0.1379,0.0519 -0.1938,0.082 -0.3023,0.1308 -0.6012,0.2711 -0.8922,0.4105 -0.1492,0.0766 -0.2949,0.1512 -0.4441,0.2297 -0.0895,0.0449 -0.1754,0.0879 -0.2539,0.1289 -0.1981,0.1024 -0.3809,0.211 -0.5676,0.3207 -0.0441,0.0243 -0.0895,0.0469 -0.1344,0.0731 -0.2273,0.1379 -0.4629,0.2762 -0.6789,0.4199 -0.075,0.0426 -0.1383,0.0914 -0.209,0.1359 -0.1496,0.0954 -0.2949,0.1903 -0.4484,0.293 -0.3094,0.2149 -0.6117,0.4422 -0.9141,0.6703 -0.0711,0.0578 -0.1382,0.1098 -0.2054,0.166 -3.2102,2.527 -5.7481,5.9828 -6.9496,9.8965 -1.2692,4.0649 -0.9895,8.6281 1.198,12.3285"
         id="path58"
         style="fill:#2e64b3;fill-opacity:1;fill-rule:nonzero;stroke:none" /><path
         d="m 29.3082,66.9465 c -1.9484,-2.859 -2.1352,-6.411 -0.7918,-9.5645 1.4262,-3.3523 4.341,-5.9816 7.7379,-7.2261 0.1379,-0.0543 0.2762,-0.0993 0.418,-0.1477 0.0636,-0.0184 0.123,-0.0391 0.1906,-0.0594 0.1976,-0.0617 0.3953,-0.1363 0.6004,-0.1758 9.3945,-1.814 11.9406,4.8208 12.6234,5.7969 -2.2355,-3.214 -5.9867,-3.9844 -10.589,-2.8668 -0.3622,0.0879 -0.7579,0.2184 -1.1086,0.3453 -0.4477,0.1586 -0.8918,0.343 -1.325,0.5469 -0.8098,0.3934 -1.5938,0.8676 -2.318,1.4164 -4.1207,3.1242 -6.6734,9.0832 -3.9863,13.9371"
         id="path60"
         style="fill:#2e64b3;fill-opacity:1;fill-rule:nonzero;stroke:none" /></g></g></svg>