<?xml version="1.0" encoding="UTF-8" standalone="no"?>
<!-- Created with Inkscape (http://www.inkscape.org/) -->

<svg
   xmlns:dc="http://purl.org/dc/elements/1.1/"
   xmlns:cc="http://creativecommons.org/ns#"
   xmlns:rdf="http://www.w3.org/1999/02/22-rdf-syntax-ns#"
   xmlns:svg="http://www.w3.org/2000/svg"
   xmlns="http://www.w3.org/2000/svg"
   version="1.1"
   width="86.019997"
   height="86.019997"
   id="svg2"
   xml:space="preserve"><metadata
     id="metadata8"><rdf:RDF><cc:Work
         rdf:about=""><dc:format>image/svg+xml</dc:format><dc:type
           rdf:resource="http://purl.org/dc/dcmitype/StillImage" /><dc:title></dc:title></cc:Work></rdf:RDF></metadata><defs
     id="defs6"><clipPath
       id="clipPath18"><path
         d="M 0,1659.91 0,0 l 2394.87,0 0,1659.91 -2394.87,0 z"
         id="path20" /></clipPath></defs><g
     transform="matrix(1.25,0,0,-1.25,0,86.019997)"
     id="g10"><g
       transform="matrix(1.0000006,0,0,0.99999489,-132.12272,-67.706351)"
       id="g3045"><path
         d="m 147.769,124.317 c -0.794,0 -1.354,-0.096 -1.919,-0.235 l 0,-0.094 0.091,0 c 0.378,-0.747 1.034,-1.266 1.498,-1.92 0.377,-0.749 0.705,-1.495 1.079,-2.245 0.046,0.046 0.091,0.095 0.091,0.095 0.66,0.466 0.987,1.214 0.987,2.339 -0.283,0.33 -0.327,0.655 -0.563,0.984 -0.28,0.467 -0.889,0.701 -1.264,1.076"
         id="path24"
         style="fill:#5b85a4;fill-opacity:1;fill-rule:evenodd;stroke:none" /><path
         d="m 195.508,83.6434 c -3.746,0.0937 -6.647,-0.2801 -9.08,-1.3106 -0.702,-0.2805 -1.824,-0.2805 -1.92,-1.1699 0.377,-0.3738 0.422,-0.9817 0.752,-1.4988 0.56,-0.936 1.541,-2.1977 2.432,-2.8547 0.983,-0.7492 1.966,-1.4953 2.997,-2.1504 1.824,-1.1281 3.884,-1.7805 5.66,-2.9043 1.033,-0.6543 2.059,-1.4961 3.092,-2.2 0.513,-0.3742 0.838,-0.9836 1.496,-1.2152 l 0,0.1417 c -0.33,0.42 -0.422,1.0286 -0.748,1.4993 -0.467,0.4644 -0.936,0.8883 -1.405,1.3543 -1.358,1.825 -3.045,3.4148 -4.866,4.7254 -1.499,1.0324 -4.777,2.4367 -5.383,4.1632 0,0 -0.049,0.0496 -0.095,0.0957 1.03,0.095 2.249,0.47 3.231,0.7539 1.589,0.42 3.04,0.325 4.678,0.745 0.75,0.1886 1.499,0.4242 2.251,0.6543 l 0,0.4242 c -0.847,0.8406 -1.453,1.9656 -2.342,2.7605 -2.385,2.0586 -5.009,4.0696 -7.723,5.7571 -1.453,0.9363 -3.325,1.5418 -4.87,2.3394 -0.559,0.2813 -1.494,0.4199 -1.823,0.8906 -0.843,1.0293 -1.313,2.3848 -1.92,3.6036 -1.356,2.5713 -2.669,5.4253 -3.837,8.1443 -0.842,1.824 -1.357,3.648 -2.387,5.334 -4.823,7.958 -10.063,12.776 -18.113,17.504 -1.732,0.984 -3.791,1.405 -5.989,1.92 -1.172,0.049 -2.341,0.14 -3.511,0.186 -0.75,0.329 -1.5,1.219 -2.154,1.64 -2.669,1.684 -9.546,5.334 -11.513,0.514 -1.264,-3.044 1.872,-6.038 2.949,-7.583 0.795,-1.075 1.826,-2.294 2.385,-3.509 0.328,-0.796 0.422,-1.64 0.751,-2.481 0.748,-2.059 1.449,-4.353 2.434,-6.273 0.513,-0.983 1.074,-2.014 1.729,-2.899 0.378,-0.518 1.031,-0.749 1.172,-1.594 -0.653,-0.935 -0.704,-2.339 -1.078,-3.51 -1.684,-5.289 -1.03,-11.8414 1.358,-15.7254 0.747,-1.1699 2.528,-3.7449 4.915,-2.7597 2.106,0.841 1.638,3.5089 2.246,5.8476 0.14,0.5656 0.046,0.9367 0.326,1.3106 l 0,-0.0946 c 0.655,-1.3086 1.312,-2.5691 1.92,-3.884 1.453,-2.291 3.978,-4.6785 6.086,-6.2683 1.12,-0.8457 2.01,-2.2942 3.414,-2.8106 l 0,0.1414 -0.092,0 c -0.282,0.42 -0.702,0.6086 -1.077,0.9348 -0.842,0.843 -1.776,1.8731 -2.434,2.8086 -1.965,2.6199 -3.699,5.5234 -5.24,8.5184 -0.751,1.4543 -1.405,3.0441 -2.014,4.4941 -0.28,0.559 -0.28,1.4039 -0.749,1.684 -0.704,-1.0285 -1.731,-1.9191 -2.245,-3.1789 -0.89,-2.0149 -0.983,-4.4949 -1.313,-7.0703 -0.186,-0.0489 -0.092,0 -0.186,-0.093 -1.496,0.3742 -2.011,1.9184 -2.574,3.2246 -1.404,3.3274 -1.64,8.6627 -0.421,12.5007 0.326,0.981 1.734,4.07 1.17,5.006 -0.283,0.893 -1.218,1.403 -1.732,2.108 -0.607,0.889 -1.266,2.01 -1.683,2.995 -1.124,2.62 -1.689,5.523 -2.902,8.143 -0.562,1.219 -1.547,2.483 -2.34,3.604 -0.891,1.264 -1.873,2.153 -2.576,3.649 -0.232,0.516 -0.56,1.359 -0.187,1.919 0.092,0.375 0.282,0.516 0.657,0.61 0.605,0.515 2.339,-0.139 2.946,-0.42 1.733,-0.7 3.184,-1.359 4.633,-2.34 0.656,-0.469 1.358,-1.358 2.199,-1.594 l 0.985,0 c 1.497,-0.325 3.183,-0.091 4.588,-0.514 2.479,-0.795 4.725,-1.965 6.739,-3.229 6.129,-3.885 11.184,-9.409 14.599,-16.007 0.563,-1.075 0.799,-2.059 1.313,-3.18 0.983,-2.298 2.201,-4.638 3.182,-6.8823 0.982,-2.2 1.92,-4.4446 3.326,-6.2727 0.7,-0.9812 3.509,-1.4961 4.773,-2.0113 0.934,-0.4199 2.387,-0.7949 3.23,-1.309 1.591,-0.9812 3.179,-2.1062 4.679,-3.1844 0.747,-0.5617 3.088,-1.7304 3.229,-2.6679"
         id="path36"
         style="fill:#2c7493;fill-opacity:1;fill-rule:evenodd;stroke:none" /></g></g></svg>