<?xml version="1.0" encoding="UTF-8" standalone="no"?>
<svg
   xmlns:dc="http://purl.org/dc/elements/1.1/"
   xmlns:cc="http://creativecommons.org/ns#"
   xmlns:rdf="http://www.w3.org/1999/02/22-rdf-syntax-ns#"
   xmlns:svg="http://www.w3.org/2000/svg"
   xmlns="http://www.w3.org/2000/svg"
   xmlns:xlink="http://www.w3.org/1999/xlink"
   xmlns:sodipodi="http://sodipodi.sourceforge.net/DTD/sodipodi-0.dtd"
   xmlns:inkscape="http://www.inkscape.org/namespaces/inkscape"
   viewBox="0 0 143.32001 143.32001"
   height="143.32001"
   width="143.32001"
   xml:space="preserve"
   id="svg2"
   version="1.1"
   inkscape:version="0.48.5 r10040"
   sodipodi:docname="nodejs-new-pantone-black.svg"><sodipodi:namedview
     pagecolor="#ffffff"
     bordercolor="#666666"
     borderopacity="1"
     objecttolerance="10"
     gridtolerance="10"
     guidetolerance="10"
     inkscape:pageopacity="0"
     inkscape:pageshadow="2"
     inkscape:window-width="1366"
     inkscape:window-height="707"
     id="namedview117"
     showgrid="false"
     inkscape:zoom="0.48"
     inkscape:cx="400"
     inkscape:cy="533.33333"
     inkscape:window-x="-2"
     inkscape:window-y="-3"
     inkscape:window-maximized="1"
     inkscape:current-layer="svg2" /><metadata
     id="metadata8"><rdf:RDF><cc:Work
         rdf:about=""><dc:format>image/svg+xml</dc:format><dc:type
           rdf:resource="http://purl.org/dc/dcmitype/StillImage" /></cc:Work></rdf:RDF></metadata><defs
     id="defs6"><clipPath
       id="clipPath18"
       clipPathUnits="userSpaceOnUse"><path
         id="path16"
         d="M 0,600 H 600 V 0 H 0 z"
         inkscape:connector-curvature="0" /></clipPath><clipPath
       id="clipPath54"
       clipPathUnits="userSpaceOnUse"><path
         id="path52"
         d="m 239.032,373.393 -42.134,-24.315 c -1.576,-0.909 -2.545,-2.588 -2.545,-4.407 v 0 -48.666 c 0,-1.818 0.969,-3.497 2.544,-4.408 v 0 l 42.133,-24.334 c 1.576,-0.909 3.516,-0.909 5.091,0 v 0 l 42.124,24.334 c 1.574,0.911 2.543,2.59 2.543,4.408 v 0 48.668 c 0,1.817 -0.969,3.496 -2.545,4.405 v 0 l -42.123,24.315 c -0.787,0.454 -1.666,0.682 -2.544,0.682 v 0 c -0.879,0 -1.757,-0.228 -2.544,-0.682"
         inkscape:connector-curvature="0" /></clipPath><linearGradient
       id="linearGradient66"
       spreadMethod="pad"
       gradientTransform="matrix(-38.064877,-77.652351,-77.652351,38.064877,258.70169,355.28543)"
       gradientUnits="userSpaceOnUse"
       y2="0"
       x2="1"
       y1="0"
       x1="0"><stop
         id="stop60"
         offset="0"
         style="stop-opacity:1;stop-color:#687e67" /><stop
         id="stop62"
         offset="0.5288042"
         style="stop-opacity:1;stop-color:#687e67" /><stop
         id="stop64"
         offset="1"
         style="stop-opacity:1;stop-color:#83a178" /></linearGradient><clipPath
       id="clipPath76"
       clipPathUnits="userSpaceOnUse"><path
         id="path74"
         d="m 195.4,292.914 c 0.401,-0.525 0.906,-0.975 1.497,-1.317 v 0 l 36.143,-20.874 6.017,-3.46 c 0.9,-0.519 1.927,-0.739 2.936,-0.665 v 0 c 0.337,0.028 0.673,0.09 1.001,0.185 v 0 l 44.43,81.357 c -0.34,0.365 -0.736,0.682 -1.181,0.938 v 0 l -27.588,15.925 -14.579,8.39 c -0.417,0.24 -0.864,0.413 -1.323,0.526 v 0 z"
         inkscape:connector-curvature="0" /></clipPath><linearGradient
       id="linearGradient92"
       spreadMethod="pad"
       gradientTransform="matrix(106.80725,78.914902,78.914902,-106.80725,235.15767,314.64658)"
       gradientUnits="userSpaceOnUse"
       y2="0"
       x2="1"
       y1="0"
       x1="0"><stop
         id="stop82"
         offset="0"
         style="stop-opacity:1;stop-color:#687e67" /><stop
         id="stop84"
         offset="0.137556"
         style="stop-opacity:1;stop-color:#687e67" /><stop
         id="stop86"
         offset="0.69737407"
         style="stop-opacity:1;stop-color:#9bb48f" /><stop
         id="stop88"
         offset="0.908084"
         style="stop-opacity:1;stop-color:#9bb48f" /><stop
         id="stop90"
         offset="1"
         style="stop-opacity:1;stop-color:#9bb48f" /></linearGradient><clipPath
       id="clipPath102"
       clipPathUnits="userSpaceOnUse"><path
         id="path100"
         d="m 239.032,373.393 -42.134,-24.315 c -1.575,-0.909 -2.545,-2.588 -2.545,-4.407 v -48.666 c 0,-1.818 0.97,-3.497 2.544,-4.408 l 42.133,-24.334 c 1.576,-0.909 3.516,-0.909 5.091,0 l 42.124,24.334 c 1.574,0.911 2.543,2.59 2.543,4.408 v 48.668 c 0,1.817 -0.969,3.496 -2.545,4.405 l -42.123,24.315 c -0.787,0.454 -1.666,0.682 -2.544,0.682 -0.879,0 -1.757,-0.228 -2.544,-0.682"
         inkscape:connector-curvature="0" /></clipPath><linearGradient
       id="linearGradient126"
       spreadMethod="pad"
       gradientTransform="matrix(97.416992,0,0,-97.416992,192.8623,382.16568)"
       gradientUnits="userSpaceOnUse"
       y2="0"
       x2="1"
       y1="0"
       x1="0"><stop
         id="stop116"
         offset="0"
         style="stop-opacity:1;stop-color:#9bb48f" /><stop
         id="stop118"
         offset="0.0919165"
         style="stop-opacity:1;stop-color:#9bb48f" /><stop
         id="stop120"
         offset="0.30262629"
         style="stop-opacity:1;stop-color:#9bb48f" /><stop
         id="stop122"
         offset="0.862444"
         style="stop-opacity:1;stop-color:#687e67" /><stop
         id="stop124"
         offset="1"
         style="stop-opacity:1;stop-color:#687e67" /></linearGradient><linearGradient
       id="linearGradient152"
       spreadMethod="pad"
       gradientTransform="matrix(97.416992,0,0,-97.416992,192.8623,320.34848)"
       gradientUnits="userSpaceOnUse"
       y2="0"
       x2="1"
       y1="0"
       x1="0"><stop
         id="stop142"
         offset="0"
         style="stop-opacity:1;stop-color:#9bb48f" /><stop
         id="stop144"
         offset="0.0919165"
         style="stop-opacity:1;stop-color:#9bb48f" /><stop
         id="stop146"
         offset="0.30262629"
         style="stop-opacity:1;stop-color:#9bb48f" /><stop
         id="stop148"
         offset="0.862444"
         style="stop-opacity:1;stop-color:#687e67" /><stop
         id="stop150"
         offset="1"
         style="stop-opacity:1;stop-color:#687e67" /></linearGradient><clipPath
       id="clipPath162"
       clipPathUnits="userSpaceOnUse"><path
         id="path160"
         d="m 239.032,373.393 -42.134,-24.315 c -1.575,-0.909 -2.545,-2.588 -2.545,-4.407 v -48.666 c 0,-1.818 0.97,-3.497 2.544,-4.408 l 42.133,-24.334 c 1.576,-0.909 3.516,-0.909 5.091,0 l 42.124,24.334 c 1.574,0.911 2.543,2.59 2.543,4.408 v 48.668 c 0,1.817 -0.969,3.496 -2.545,4.405 l -42.123,24.315 c -0.787,0.454 -1.666,0.682 -2.544,0.682 -0.879,0 -1.757,-0.228 -2.544,-0.682"
         inkscape:connector-curvature="0" /></clipPath><linearGradient
       id="linearGradient186"
       spreadMethod="pad"
       gradientTransform="matrix(97.416992,0,0,-97.416992,192.8623,292.53787)"
       gradientUnits="userSpaceOnUse"
       y2="0"
       x2="1"
       y1="0"
       x1="0"><stop
         id="stop176"
         offset="0"
         style="stop-opacity:1;stop-color:#9bb48f" /><stop
         id="stop178"
         offset="0.0919165"
         style="stop-opacity:1;stop-color:#9bb48f" /><stop
         id="stop180"
         offset="0.30262629"
         style="stop-opacity:1;stop-color:#9bb48f" /><stop
         id="stop182"
         offset="0.862444"
         style="stop-opacity:1;stop-color:#687e67" /><stop
         id="stop184"
         offset="1"
         style="stop-opacity:1;stop-color:#687e67" /></linearGradient><clipPath
       id="clipPath196"
       clipPathUnits="userSpaceOnUse"><path
         id="path194"
         d="m 239.032,373.393 -42.134,-24.315 c -1.575,-0.909 -2.545,-2.588 -2.545,-4.407 v -48.666 c 0,-1.818 0.97,-3.497 2.544,-4.408 l 42.133,-24.334 c 1.576,-0.909 3.516,-0.909 5.091,0 l 42.124,24.334 c 1.574,0.911 2.543,2.59 2.543,4.408 v 48.668 c 0,1.817 -0.969,3.496 -2.545,4.405 l -42.123,24.315 c -0.787,0.454 -1.666,0.682 -2.544,0.682 -0.879,0 -1.757,-0.228 -2.544,-0.682"
         inkscape:connector-curvature="0" /></clipPath><linearGradient
       id="linearGradient220"
       spreadMethod="pad"
       gradientTransform="matrix(97.416992,0,0,-97.416992,192.8623,279.9682)"
       gradientUnits="userSpaceOnUse"
       y2="0"
       x2="1"
       y1="0"
       x1="0"><stop
         id="stop210"
         offset="0"
         style="stop-opacity:1;stop-color:#9bb48f" /><stop
         id="stop212"
         offset="0.0919165"
         style="stop-opacity:1;stop-color:#9bb48f" /><stop
         id="stop214"
         offset="0.30262629"
         style="stop-opacity:1;stop-color:#9bb48f" /><stop
         id="stop216"
         offset="0.862444"
         style="stop-opacity:1;stop-color:#687e67" /><stop
         id="stop218"
         offset="1"
         style="stop-opacity:1;stop-color:#687e67" /></linearGradient><clipPath
       id="clipPath230"
       clipPathUnits="userSpaceOnUse"><path
         id="path228"
         d="m 239.032,373.393 -42.134,-24.315 c -1.575,-0.909 -2.545,-2.588 -2.545,-4.407 v -48.666 c 0,-1.818 0.97,-3.497 2.544,-4.408 l 42.133,-24.334 c 1.576,-0.909 3.516,-0.909 5.091,0 l 42.124,24.334 c 1.574,0.911 2.543,2.59 2.543,4.408 v 48.668 c 0,1.817 -0.969,3.496 -2.545,4.405 l -42.123,24.315 c -0.787,0.454 -1.666,0.682 -2.544,0.682 -0.879,0 -1.757,-0.228 -2.544,-0.682"
         inkscape:connector-curvature="0" /></clipPath><linearGradient
       id="linearGradient250"
       spreadMethod="pad"
       gradientTransform="matrix(-60.080605,-122.56444,-122.56444,60.080605,304.47177,357.58765)"
       gradientUnits="userSpaceOnUse"
       y2="0"
       x2="1"
       y1="0"
       x1="0"><stop
         id="stop244"
         offset="0"
         style="stop-opacity:1;stop-color:#687e67" /><stop
         id="stop246"
         offset="0.5288042"
         style="stop-opacity:1;stop-color:#687e67" /><stop
         id="stop248"
         offset="1"
         style="stop-opacity:1;stop-color:#83a178" /></linearGradient><linearGradient
       inkscape:collect="always"
       xlink:href="#linearGradient66"
       id="linearGradient3186"
       gradientUnits="userSpaceOnUse"
       gradientTransform="matrix(-38.064877,-77.652351,-77.652351,38.064877,258.70169,355.28543)"
       spreadMethod="pad"
       x1="0"
       y1="0"
       x2="1"
       y2="0" /><linearGradient
       inkscape:collect="always"
       xlink:href="#linearGradient92"
       id="linearGradient3188"
       gradientUnits="userSpaceOnUse"
       gradientTransform="matrix(106.80725,78.914902,78.914902,-106.80725,235.15767,314.64658)"
       spreadMethod="pad"
       x1="0"
       y1="0"
       x2="1"
       y2="0" /><linearGradient
       inkscape:collect="always"
       xlink:href="#linearGradient152"
       id="linearGradient3190"
       gradientUnits="userSpaceOnUse"
       gradientTransform="matrix(97.416992,0,0,-97.416992,192.8623,320.34848)"
       spreadMethod="pad"
       x1="0"
       y1="0"
       x2="1"
       y2="0" /><linearGradient
       inkscape:collect="always"
       xlink:href="#linearGradient220"
       id="linearGradient3192"
       gradientUnits="userSpaceOnUse"
       gradientTransform="matrix(97.416992,0,0,-97.416992,192.8623,279.9682)"
       spreadMethod="pad"
       x1="0"
       y1="0"
       x2="1"
       y2="0" /><linearGradient
       inkscape:collect="always"
       xlink:href="#linearGradient250"
       id="linearGradient3194"
       gradientUnits="userSpaceOnUse"
       gradientTransform="matrix(-60.080605,-122.56444,-122.56444,60.080605,304.47177,357.58765)"
       spreadMethod="pad"
       x1="0"
       y1="0"
       x2="1"
       y2="0" /><linearGradient
       inkscape:collect="always"
       xlink:href="#linearGradient66"
       id="linearGradient3225"
       gradientUnits="userSpaceOnUse"
       gradientTransform="matrix(-38.064877,-77.652351,-77.652351,38.064877,258.70169,355.28543)"
       spreadMethod="pad"
       x1="0"
       y1="0"
       x2="1"
       y2="0" /><linearGradient
       inkscape:collect="always"
       xlink:href="#linearGradient92"
       id="linearGradient3227"
       gradientUnits="userSpaceOnUse"
       gradientTransform="matrix(106.80725,78.914902,78.914902,-106.80725,235.15767,314.64658)"
       spreadMethod="pad"
       x1="0"
       y1="0"
       x2="1"
       y2="0" /><linearGradient
       inkscape:collect="always"
       xlink:href="#linearGradient152"
       id="linearGradient3229"
       gradientUnits="userSpaceOnUse"
       gradientTransform="matrix(97.416992,0,0,-97.416992,192.8623,320.34848)"
       spreadMethod="pad"
       x1="0"
       y1="0"
       x2="1"
       y2="0" /><linearGradient
       inkscape:collect="always"
       xlink:href="#linearGradient220"
       id="linearGradient3231"
       gradientUnits="userSpaceOnUse"
       gradientTransform="matrix(97.416992,0,0,-97.416992,192.8623,279.9682)"
       spreadMethod="pad"
       x1="0"
       y1="0"
       x2="1"
       y2="0" /><linearGradient
       inkscape:collect="always"
       xlink:href="#linearGradient250"
       id="linearGradient3233"
       gradientUnits="userSpaceOnUse"
       gradientTransform="matrix(-60.080605,-122.56444,-122.56444,60.080605,304.47177,357.58765)"
       spreadMethod="pad"
       x1="0"
       y1="0"
       x2="1"
       y2="0" /><linearGradient
       inkscape:collect="always"
       xlink:href="#linearGradient66"
       id="linearGradient3266"
       gradientUnits="userSpaceOnUse"
       gradientTransform="matrix(-38.064877,-77.652351,-77.652351,38.064877,258.70169,355.28543)"
       spreadMethod="pad"
       x1="0"
       y1="0"
       x2="1"
       y2="0" /><linearGradient
       inkscape:collect="always"
       xlink:href="#linearGradient92"
       id="linearGradient3268"
       gradientUnits="userSpaceOnUse"
       gradientTransform="matrix(106.80725,78.914902,78.914902,-106.80725,235.15767,314.64658)"
       spreadMethod="pad"
       x1="0"
       y1="0"
       x2="1"
       y2="0" /><linearGradient
       inkscape:collect="always"
       xlink:href="#linearGradient152"
       id="linearGradient3270"
       gradientUnits="userSpaceOnUse"
       gradientTransform="matrix(97.416992,0,0,-97.416992,192.8623,320.34848)"
       spreadMethod="pad"
       x1="0"
       y1="0"
       x2="1"
       y2="0" /><linearGradient
       inkscape:collect="always"
       xlink:href="#linearGradient220"
       id="linearGradient3272"
       gradientUnits="userSpaceOnUse"
       gradientTransform="matrix(97.416992,0,0,-97.416992,192.8623,279.9682)"
       spreadMethod="pad"
       x1="0"
       y1="0"
       x2="1"
       y2="0" /><linearGradient
       inkscape:collect="always"
       xlink:href="#linearGradient250"
       id="linearGradient3274"
       gradientUnits="userSpaceOnUse"
       gradientTransform="matrix(-60.080605,-122.56444,-122.56444,60.080605,304.47177,357.58765)"
       spreadMethod="pad"
       x1="0"
       y1="0"
       x2="1"
       y2="0" /></defs><g
     id="g96"
     transform="matrix(1.3333333,0,0,-1.3333333,0,143.31999)"><g
       id="g98"
       clip-path="url(#clipPath102)"><g
         id="g104"><g
           id="g106"><g
             id="g112"><g
               id="g114"><path
                 inkscape:connector-curvature="0"
                 d="M 237.627,382.331 237.047,382 h 0.774 z"
                 style="fill:url(#linearGradient126);stroke:none"
                 id="path128" /></g></g></g></g></g></g><g
     id="g156"
     transform="matrix(1.3333333,0,0,-1.3333333,0,143.31999)"><g
       id="g158"
       clip-path="url(#clipPath162)"><g
         id="g164"><g
           id="g166"><g
             id="g172"><g
               id="g174"><path
                 inkscape:connector-curvature="0"
                 d="M 290.279,292.38 290,292.857 v -0.639 z"
                 style="fill:url(#linearGradient186);stroke:none"
                 id="path188" /></g></g></g></g></g></g><g
     id="g3235"
     transform="translate(8.7060033,654.60838)"><g
       transform="matrix(1.3333333,0,0,-1.3333333,-259.13733,-155.84669)"
       id="g48"><g
         clip-path="url(#clipPath54)"
         id="g50"><g
           id="g56"><g
             id="g58"><path
               id="path68"
               style="fill:url(#linearGradient3266);stroke:none"
               d="m 239.032,373.393 -42.134,-24.315 c -1.576,-0.909 -2.545,-2.588 -2.545,-4.407 v 0 -48.666 c 0,-1.818 0.969,-3.497 2.544,-4.408 v 0 l 42.133,-24.334 c 1.576,-0.909 3.516,-0.909 5.091,0 v 0 l 42.124,24.334 c 1.574,0.911 2.543,2.59 2.543,4.408 v 0 48.668 c 0,1.817 -0.969,3.496 -2.545,4.405 v 0 l -42.123,24.315 c -0.787,0.454 -1.666,0.682 -2.544,0.682 v 0 c -0.879,0 -1.757,-0.228 -2.544,-0.682"
               inkscape:connector-curvature="0" /></g></g></g></g><g
       transform="matrix(1.3333333,0,0,-1.3333333,-259.13733,-155.84669)"
       id="g70"><g
         clip-path="url(#clipPath76)"
         id="g72"><g
           id="g78"><g
             id="g80"><path
               id="path94"
               style="fill:url(#linearGradient3268);stroke:none"
               d="m 195.4,292.914 c 0.401,-0.525 0.906,-0.975 1.497,-1.317 v 0 l 36.143,-20.874 6.017,-3.46 c 0.9,-0.519 1.927,-0.739 2.936,-0.665 v 0 c 0.337,0.028 0.673,0.09 1.001,0.185 v 0 l 44.43,81.357 c -0.34,0.365 -0.736,0.682 -1.181,0.938 v 0 l -27.588,15.925 -14.579,8.39 c -0.417,0.24 -0.864,0.413 -1.323,0.526 v 0 z"
               inkscape:connector-curvature="0" /></g></g></g></g><g
       transform="matrix(1.3333333,0,0,-1.3333333,-259.13733,-155.84669)"
       id="g130"><g
         id="g132"><g
           id="g138"><g
             id="g140"><path
               id="path154"
               style="fill:url(#linearGradient3270);stroke:none"
               d="m 241.065,374.048 c -0.705,-0.07 -1.398,-0.289 -2.033,-0.655 v 0 l -42.014,-24.245 45.293,-82.513 c 0.628,0.091 1.243,0.301 1.81,0.628 v 0 l 42.124,24.334 c 1.301,0.753 2.189,2.031 2.458,3.477 v 0 l -46.178,78.89 c -0.341,0.068 -0.688,0.102 -1.035,0.102 v 0 c -0.142,0 -0.284,-0.006 -0.425,-0.018"
               inkscape:connector-curvature="0" /></g></g></g></g><g
       transform="matrix(1.3333333,0,0,-1.3333333,-259.13733,-155.84669)"
       id="g190"><g
         clip-path="url(#clipPath196)"
         id="g192"><g
           id="g198"><g
             id="g200"><g
               id="g206"><g
                 id="g208"><path
                   id="path222"
                   style="fill:url(#linearGradient3272);stroke:none"
                   d="m 286.351,291.597 -42.177,-24.333 c -0.58,-0.335 -1.213,-0.545 -1.861,-0.633 l 0.84,-1.53 46.847,27.117 v 0.639 l -1.158,1.979 c -0.347,-1.348 -1.263,-2.528 -2.491,-3.239"
                   inkscape:connector-curvature="0" /></g></g></g></g></g></g><g
       transform="matrix(1.3333333,0,0,-1.3333333,-259.13733,-155.84669)"
       id="g224"><g
         clip-path="url(#clipPath230)"
         id="g226"><g
           id="g232"><g
             id="g234"><g
               id="g240"><g
                 id="g242"><path
                   id="path252"
                   style="fill:url(#linearGradient3274);stroke:none"
                   d="m 286.351,291.597 -42.177,-24.333 c -0.58,-0.335 -1.213,-0.545 -1.861,-0.633 l 0.84,-1.53 46.847,27.117 v 0.639 l -1.158,1.979 c -0.347,-1.348 -1.263,-2.528 -2.491,-3.239"
                   inkscape:connector-curvature="0" /></g></g></g></g></g></g></g></svg>