<?xml version="1.0" encoding="UTF-8" standalone="no"?>
<!-- Created with Inkscape (http://www.inkscape.org/) -->

<svg
   xmlns:dc="http://purl.org/dc/elements/1.1/"
   xmlns:cc="http://creativecommons.org/ns#"
   xmlns:rdf="http://www.w3.org/1999/02/22-rdf-syntax-ns#"
   xmlns:svg="http://www.w3.org/2000/svg"
   xmlns="http://www.w3.org/2000/svg"
   xmlns:xlink="http://www.w3.org/1999/xlink"
   xmlns:sodipodi="http://sodipodi.sourceforge.net/DTD/sodipodi-0.dtd"
   xmlns:inkscape="http://www.inkscape.org/namespaces/inkscape"
   id="svg2"
   version="1.1"
   inkscape:version="0.48.5 r10040"
   width="136"
   height="136"
   xml:space="preserve"
   sodipodi:docname="nodejs-new-black.svg"><metadata
     id="metadata8"><rdf:RDF><cc:Work
         rdf:about=""><dc:format>image/svg+xml</dc:format><dc:type
           rdf:resource="http://purl.org/dc/dcmitype/StillImage" /><dc:title></dc:title></cc:Work></rdf:RDF></metadata><defs
     id="defs6"><clipPath
       clipPathUnits="userSpaceOnUse"
       id="clipPath16"><path
         d="M 0,600 600,600 600,0 0,0 0,600 z"
         id="path18"
         inkscape:connector-curvature="0" /></clipPath><clipPath
       clipPathUnits="userSpaceOnUse"
       id="clipPath52"><path
         d="m 238.756,373.131 -42.02,-24.254 c -1.572,-0.906 -2.539,-2.582 -2.539,-4.395 l 0,0 0,-48.548 c 0,-1.814 0.967,-3.489 2.537,-4.397 l 0,0 42.02,-24.274 c 1.571,-0.907 3.507,-0.907 5.079,0 l 0,0 42.029,24.274 c 1.571,0.908 2.538,2.583 2.538,4.397 l 0,0 0,48.546 c 0,1.815 -0.967,3.491 -2.539,4.397 l 0,0 -42.03,24.254 c -0.785,0.454 -1.661,0.68 -2.538,0.68 l 0,0 c -0.876,0 -1.753,-0.226 -2.537,-0.68"
         id="path54"
         inkscape:connector-curvature="0" /></clipPath><linearGradient
       x1="0"
       y1="0"
       x2="1"
       y2="0"
       gradientUnits="userSpaceOnUse"
       gradientTransform="matrix(94.203888,0,0,-94.203888,194.19629,320.19702)"
       spreadMethod="pad"
       id="linearGradient60"><stop
         style="stop-opacity:1;stop-color:#231f20"
         offset="0"
         id="stop62" /><stop
         style="stop-opacity:1;stop-color:#797b7d"
         offset="1"
         id="stop64" /></linearGradient><clipPath
       clipPathUnits="userSpaceOnUse"
       id="clipPath72"><path
         d="m 238.766,373.131 -42.03,-24.254 c -1.572,-0.906 -2.539,-2.582 -2.539,-4.397 l 0,0 0,-48.546 c 0,-1.814 0.967,-3.489 2.537,-4.397 l 0,0 42.031,-24.274 c 1.571,-0.907 3.506,-0.907 5.077,0 l 0,0 42.02,24.274 c 1.571,0.908 2.538,2.583 2.538,4.397 l 0,0 0,48.548 c 0,1.813 -0.967,3.489 -2.538,4.395 l 0,0 -42.021,24.254 c -0.785,0.454 -1.661,0.68 -2.538,0.68 l 0,0 c -0.876,0 -1.752,-0.226 -2.537,-0.68"
         id="path74"
         inkscape:connector-curvature="0" /></clipPath><clipPath
       clipPathUnits="userSpaceOnUse"
       id="clipPath80"><path
         d="m 195.182,373.659 91.752,0 0,-107.069 -91.752,0 0,107.069 z"
         id="path82"
         inkscape:connector-curvature="0" /></clipPath><clipPath
       clipPathUnits="userSpaceOnUse"
       id="clipPath96"><path
         d="m 240.99,373.802 c -0.771,-0.048 -1.533,-0.272 -2.224,-0.671 l 0,0 -41.629,-24.022 45.223,-82.385 c 0.473,0.112 0.935,0.286 1.373,0.539 l 0,0 41.93,24.274 c 1.569,0.908 2.337,2.583 2.337,4.397 l 0,0 0,0.19 -45.36,77.493 c -0.455,0.127 -0.924,0.191 -1.392,0.191 l 0,0 c -0.086,0 -0.172,-0.002 -0.258,-0.006"
         id="path98"
         inkscape:connector-curvature="0" /></clipPath><linearGradient
       x1="0"
       y1="0"
       x2="1"
       y2="0"
       gradientUnits="userSpaceOnUse"
       gradientTransform="matrix(97.177795,0,0,-97.177795,193.54504,320.26605)"
       spreadMethod="pad"
       id="linearGradient104"><stop
         style="stop-opacity:1;stop-color:#797b7d"
         offset="0"
         id="stop106" /><stop
         style="stop-opacity:1;stop-color:#231f20"
         offset="0.994699"
         id="stop108" /><stop
         style="stop-opacity:1;stop-color:#231f20"
         offset="1"
         id="stop110" /></linearGradient><linearGradient
       inkscape:collect="always"
       xlink:href="#linearGradient60"
       id="linearGradient3150"
       gradientUnits="userSpaceOnUse"
       gradientTransform="matrix(94.203888,0,0,-94.203888,194.19629,320.19702)"
       spreadMethod="pad"
       x1="0"
       y1="0"
       x2="1"
       y2="0" /><linearGradient
       inkscape:collect="always"
       xlink:href="#linearGradient104"
       id="linearGradient3152"
       gradientUnits="userSpaceOnUse"
       gradientTransform="matrix(97.177795,0,0,-97.177795,193.54504,320.26605)"
       spreadMethod="pad"
       x1="0"
       y1="0"
       x2="1"
       y2="0" /></defs><sodipodi:namedview
     pagecolor="#ffffff"
     bordercolor="#666666"
     borderopacity="1"
     objecttolerance="10"
     gridtolerance="10"
     guidetolerance="10"
     inkscape:pageopacity="0"
     inkscape:pageshadow="2"
     inkscape:window-width="1366"
     inkscape:window-height="707"
     id="namedview4"
     showgrid="false"
     inkscape:zoom="1.45"
     inkscape:cx="265.1831"
     inkscape:cy="130.31242"
     inkscape:window-x="-2"
     inkscape:window-y="-3"
     inkscape:window-maximized="1"
     inkscape:current-layer="g92" /><g
     id="g10"
     inkscape:groupmode="layer"
     inkscape:label="nodejs-new-black"
     transform="matrix(1.25,0,0,-1.25,0,136)"><g
       id="g92"><g
         id="g3131"
         transform="translate(6.34418,-491.88483)"><g
           transform="translate(-192.94118,225.88235)"
           id="g48"><g
             clip-path="url(#clipPath52)"
             id="g50"><g
               id="g56"><g
                 id="g58"><path
                   inkscape:connector-curvature="0"
                   id="path66"
                   style="fill:url(#linearGradient3150);stroke:none"
                   d="m 238.756,373.131 -42.02,-24.254 c -1.572,-0.906 -2.539,-2.582 -2.539,-4.395 l 0,0 0,-48.548 c 0,-1.814 0.967,-3.489 2.537,-4.397 l 0,0 42.02,-24.274 c 1.571,-0.907 3.507,-0.907 5.079,0 l 0,0 42.029,24.274 c 1.571,0.908 2.538,2.583 2.538,4.397 l 0,0 0,48.546 c 0,1.815 -0.967,3.491 -2.539,4.397 l 0,0 -42.03,24.254 c -0.785,0.454 -1.661,0.68 -2.538,0.68 l 0,0 c -0.876,0 -1.753,-0.226 -2.537,-0.68" /></g></g></g></g><g
           transform="translate(-192.94118,225.88235)"
           id="g68"><g
             clip-path="url(#clipPath72)"
             id="g70"><g
               id="g76"><g
                 id="g78" /><g
                 id="g84"><g
                   style="opacity:0.66000402"
                   id="g86"
                   clip-path="url(#clipPath80)"><g
                     id="g88"
                     transform="translate(285.6486,348.877)"><path
                       inkscape:connector-curvature="0"
                       id="path90"
                       style="fill:#b4b4b4;fill-opacity:1;fill-rule:nonzero;stroke:none"
                       d="m 0,0 -41.843,24.255 c -0.419,0.242 -0.867,0.414 -1.327,0.527 l -47.296,-80.908 c 0.398,-0.479 0.878,-0.896 1.428,-1.214 l 42.093,-24.274 c 1.255,-0.724 2.707,-0.86 4.043,-0.428 L 1.286,-1.128 C 0.94,-0.686 0.517,-0.298 0,0" /></g></g></g></g></g></g><g
           transform="translate(-192.94118,225.88235)"
           clip-path="url(#clipPath96)"
           id="g94"><g
             id="g100"><g
               id="g102"><path
                 inkscape:connector-curvature="0"
                 id="path112"
                 style="fill:url(#linearGradient3152);stroke:none"
                 d="m 240.99,373.802 c -0.771,-0.048 -1.533,-0.272 -2.224,-0.671 l 0,0 -41.629,-24.022 45.223,-82.385 c 0.473,0.112 0.935,0.286 1.373,0.539 l 0,0 41.93,24.274 c 1.569,0.908 2.337,2.583 2.337,4.397 l 0,0 0,0.19 -45.36,77.493 c -0.455,0.127 -0.924,0.191 -1.392,0.191 l 0,0 c -0.086,0 -0.172,-0.002 -0.258,-0.006" /></g></g></g></g></g></g></svg>