<?xml version="1.0" encoding="UTF-8" standalone="no"?>
<!-- Generator: Adobe Illustrator 19.2.0, SVG Export Plug-In . SVG Version: 6.00 Build 0)  -->

<svg
   xmlns:dc="http://purl.org/dc/elements/1.1/"
   xmlns:cc="http://creativecommons.org/ns#"
   xmlns:rdf="http://www.w3.org/1999/02/22-rdf-syntax-ns#"
   xmlns:svg="http://www.w3.org/2000/svg"
   xmlns="http://www.w3.org/2000/svg"
   xmlns:sodipodi="http://sodipodi.sourceforge.net/DTD/sodipodi-0.dtd"
   xmlns:inkscape="http://www.inkscape.org/namespaces/inkscape"
   version="1.1"
   id="Layer_1"
   x="0px"
   y="0px"
   viewBox="0 0 218.6 218.6"
   xml:space="preserve"
   inkscape:version="0.48.5 r10040"
   width="100%"
   height="100%"
   sodipodi:docname="p-logo.svg"><metadata
     id="metadata57"><rdf:RDF><cc:Work
         rdf:about=""><dc:format>image/svg+xml</dc:format><dc:type
           rdf:resource="http://purl.org/dc/dcmitype/StillImage" /></cc:Work></rdf:RDF></metadata><defs
     id="defs55" /><sodipodi:namedview
     pagecolor="#ffffff"
     bordercolor="#666666"
     borderopacity="1"
     objecttolerance="10"
     gridtolerance="10"
     guidetolerance="10"
     inkscape:pageopacity="0"
     inkscape:pageshadow="2"
     inkscape:window-width="1366"
     inkscape:window-height="707"
     id="namedview53"
     showgrid="false"
     inkscape:zoom="1.4217391"
     inkscape:cx="115"
     inkscape:cy="80"
     inkscape:window-x="-2"
     inkscape:window-y="-3"
     inkscape:window-maximized="1"
     inkscape:current-layer="Layer_1" /><style
     type="text/css"
     id="style3">
	.st0{fill:#FFFFFF;}
	.st1{opacity:0.8;fill:#F52757;}
	.st2{opacity:0.7;fill:#F52757;}
	.st3{opacity:0.6;fill:#F52757;}
	.st4{opacity:0.68;fill:#1E88E5;}
	.st5{opacity:0.76;fill:#1E88E5;}
	.st6{opacity:0.84;fill:#1E88E5;}
	.st7{opacity:0.94;fill:#1E88E5;}
	.st8{opacity:0.65;fill:#F52757;}
	.st9{fill:#F52757;}
	.st10{fill:#1E88E5;}
	.st11{opacity:0.92;fill:#0D47A1;}
	.st12{fill:#0D47A1;}
</style><g
     id="g5"
     transform="translate(-5.7,29.299995)"><polygon
       class="st0"
       points="49.4,80 93.1,4.3 49.4,4.3 5.7,80 49.4,155.7 93.1,155.7 158.7,42.1 180.6,80 136.9,155.7 180.6,155.7 224.3,80 180.6,4.3 136.9,4.3 71.3,117.9 "
       id="polygon7"
       style="fill:#ffffff" /><polygon
       class="st1"
       points="136.8,4.3 158.7,42.1 115,42.1 "
       id="polygon9"
       style="opacity:0.8;fill:#f52757" /><polygon
       class="st2"
       points="136.8,80 158.7,42.1 115,42.1 "
       id="polygon11"
       style="opacity:0.7;fill:#f52757" /><polygon
       class="st3"
       points="115,42.1 136.8,80 93.1,80 "
       id="polygon13"
       style="opacity:0.6;fill:#f52757" /><polygon
       class="st4"
       points="71.3,42.1 93.1,4.3 49.4,4.3 "
       id="polygon15"
       style="opacity:0.68000034;fill:#1e88e5" /><polygon
       class="st5"
       points="49.4,4.3 71.3,42.1 27.6,42.1 "
       id="polygon17"
       style="opacity:0.76000001;fill:#1e88e5" /><polygon
       class="st6"
       points="49.4,80 71.3,42.1 27.6,42.1 "
       id="polygon19"
       style="opacity:0.83999999;fill:#1e88e5" /><polygon
       class="st7"
       points="27.6,42.1 49.4,80 5.7,80 "
       id="polygon21"
       style="opacity:0.93999999;fill:#1e88e5" /><polygon
       class="st8"
       points="115,117.9 136.8,80 93.1,80 "
       id="polygon23"
       style="opacity:0.65;fill:#f52757" /><polygon
       class="st2"
       points="93.1,80 115,117.9 71.3,117.9 "
       id="polygon25"
       style="opacity:0.7;fill:#f52757" /><polygon
       class="st1"
       points="93.1,155.7 115,117.9 71.3,117.9 "
       id="polygon27"
       style="opacity:0.8;fill:#f52757" /><polygon
       class="st9"
       points="71.3,117.9 93.1,155.7 49.4,155.7 "
       id="polygon29"
       style="fill:#f52757" /><polygon
       class="st10"
       points="27.6,117.9 49.4,80 5.7,80 "
       id="polygon31"
       style="fill:#1e88e5" /><polygon
       class="st4"
       points="158.7,117.9 136.9,155.7 180.6,155.7 "
       id="polygon33"
       style="opacity:0.68000034;fill:#1e88e5" /><polygon
       class="st5"
       points="180.6,155.7 158.7,117.9 202.4,117.9 "
       id="polygon35"
       style="opacity:0.76000001;fill:#1e88e5" /><polygon
       class="st6"
       points="180.6,80 158.7,117.9 202.4,117.9 "
       id="polygon37"
       style="opacity:0.83999999;fill:#1e88e5" /><polygon
       class="st7"
       points="202.4,117.9 180.6,80 224.3,80 "
       id="polygon39"
       style="opacity:0.93999999;fill:#1e88e5" /><polygon
       class="st10"
       points="202.4,42.1 180.6,80 224.3,80 "
       id="polygon41"
       style="fill:#1e88e5" /><polygon
       class="st11"
       points="49.4,80 27.6,117.9 71.3,117.9 "
       id="polygon43"
       style="opacity:0.92000002;fill:#0d47a1" /><polygon
       class="st12"
       points="49.4,155.7 27.6,117.9 71.3,117.9 "
       id="polygon45"
       style="fill:#0d47a1" /><polygon
       class="st9"
       points="158.7,42.1 180.6,4.3 136.8,4.3 "
       id="polygon47"
       style="fill:#f52757" /><polygon
       class="st12"
       points="180.6,4.3 158.7,42.1 202.4,42.1 "
       id="polygon49"
       style="fill:#0d47a1" /><polygon
       class="st11"
       points="180.6,80 158.7,42.1 202.4,42.1 "
       id="polygon51"
       style="opacity:0.92000002;fill:#0d47a1" /></g></svg>