<?xml version="1.0" encoding="UTF-8" standalone="no"?>
<svg
   xmlns:dc="http://purl.org/dc/elements/1.1/"
   xmlns:cc="http://creativecommons.org/ns#"
   xmlns:rdf="http://www.w3.org/1999/02/22-rdf-syntax-ns#"
   xmlns:svg="http://www.w3.org/2000/svg"
   xmlns="http://www.w3.org/2000/svg"
   xmlns:xlink="http://www.w3.org/1999/xlink"
   height="143.77499"
   width="143.77499"
   id="svg2"
   version="1.0">
  <metadata
     id="metadata371">
    <rdf:RDF>
      <cc:Work
         rdf:about="">
        <dc:format>image/svg+xml</dc:format>
        <dc:type
           rdf:resource="http://purl.org/dc/dcmitype/StillImage" />
        <dc:title></dc:title>
      </cc:Work>
    </rdf:RDF>
  </metadata>
  <defs
     id="defs4">
    <linearGradient
       id="linearGradient2795">
      <stop
         id="stop2797"
         offset="0"
         style="stop-color:#b8b8b8;stop-opacity:0.49803922;" />
      <stop
         id="stop2799"
         offset="1"
         style="stop-color:#7f7f7f;stop-opacity:0;" />
    </linearGradient>
    <linearGradient
       id="linearGradient2787">
      <stop
         id="stop2789"
         offset="0"
         style="stop-color:#7f7f7f;stop-opacity:0.5;" />
      <stop
         id="stop2791"
         offset="1"
         style="stop-color:#7f7f7f;stop-opacity:0;" />
    </linearGradient>
    <linearGradient
       id="linearGradient3676">
      <stop
         id="stop3678"
         offset="0"
         style="stop-color:#b2b2b2;stop-opacity:0.5;" />
      <stop
         id="stop3680"
         offset="1"
         style="stop-color:#b3b3b3;stop-opacity:0;" />
    </linearGradient>
    <linearGradient
       id="linearGradient3236">
      <stop
         id="stop3244"
         offset="0"
         style="stop-color:#f4f4f4;stop-opacity:1" />
      <stop
         id="stop3240"
         offset="1"
         style="stop-color:white;stop-opacity:1" />
    </linearGradient>
    <linearGradient
       id="linearGradient4671">
      <stop
         id="stop4673"
         offset="0"
         style="stop-color:#ffd43b;stop-opacity:1;" />
      <stop
         id="stop4675"
         offset="1"
         style="stop-color:#ffe873;stop-opacity:1" />
    </linearGradient>
    <linearGradient
       id="linearGradient4689">
      <stop
         id="stop4691"
         offset="0"
         style="stop-color:#5a9fd4;stop-opacity:1;" />
      <stop
         id="stop4693"
         offset="1"
         style="stop-color:#306998;stop-opacity:1;" />
    </linearGradient>
    <linearGradient
       gradientTransform="translate(100.2702,99.61116)"
       gradientUnits="userSpaceOnUse"
       xlink:href="#linearGradient4671"
       id="linearGradient2987"
       y2="144.75717"
       x2="-65.308502"
       y1="144.75717"
       x1="224.23996" />
    <linearGradient
       gradientTransform="translate(100.2702,99.61116)"
       gradientUnits="userSpaceOnUse"
       xlink:href="#linearGradient4689"
       id="linearGradient2990"
       y2="76.313133"
       x2="26.670298"
       y1="77.475983"
       x1="172.94208" />
    <linearGradient
       y2="76.313133"
       x2="26.670298"
       y1="77.475983"
       x1="172.94208"
       gradientTransform="translate(100.2702,99.61116)"
       gradientUnits="userSpaceOnUse"
       id="linearGradient2587"
       xlink:href="#linearGradient4689" />
    <linearGradient
       y2="144.75717"
       x2="-65.308502"
       y1="144.75717"
       x1="224.23996"
       gradientTransform="translate(100.2702,99.61116)"
       gradientUnits="userSpaceOnUse"
       id="linearGradient2589"
       xlink:href="#linearGradient4671" />
    <linearGradient
       y2="76.313133"
       x2="26.670298"
       y1="77.475983"
       x1="172.94208"
       gradientTransform="translate(100.2702,99.61116)"
       gradientUnits="userSpaceOnUse"
       id="linearGradient2248"
       xlink:href="#linearGradient4689" />
    <linearGradient
       y2="144.75717"
       x2="-65.308502"
       y1="144.75717"
       x1="224.23996"
       gradientTransform="translate(100.2702,99.61116)"
       gradientUnits="userSpaceOnUse"
       id="linearGradient2250"
       xlink:href="#linearGradient4671" />
    <linearGradient
       y2="144.75717"
       x2="-65.308502"
       y1="144.75717"
       x1="224.23996"
       gradientTransform="matrix(0.562541,0,0,0.567972,-11.5974,-7.60954)"
       gradientUnits="userSpaceOnUse"
       id="linearGradient2255"
       xlink:href="#linearGradient4671" />
    <linearGradient
       y2="76.313133"
       x2="26.670298"
       y1="76.176224"
       x1="172.94208"
       gradientTransform="matrix(0.562541,0,0,0.567972,-11.5974,-7.60954)"
       gradientUnits="userSpaceOnUse"
       id="linearGradient2258"
       xlink:href="#linearGradient4689" />
    <radialGradient
       gradientUnits="userSpaceOnUse"
       gradientTransform="matrix(1,0,0,0.177966,0,108.7434)"
       r="29.036913"
       fy="132.28575"
       fx="61.518883"
       cy="132.28575"
       cx="61.518883"
       id="radialGradient2801"
       xlink:href="#linearGradient2795" />
    <linearGradient
       y2="137.27299"
       x2="112.03144"
       y1="192.35176"
       x1="150.96111"
       gradientTransform="matrix(0.562541,0,0,0.567972,-9.399749,-5.3053086)"
       gradientUnits="userSpaceOnUse"
       id="linearGradient1475"
       xlink:href="#linearGradient4671" />
    <linearGradient
       y2="114.39767"
       x2="135.66525"
       y1="20.603781"
       x1="26.648937"
       gradientTransform="matrix(0.562541,0,0,0.567972,-9.399749,-5.3053086)"
       gradientUnits="userSpaceOnUse"
       id="linearGradient1478"
       xlink:href="#linearGradient4689" />
    <radialGradient
       r="29.036913"
       fy="132.28575"
       fx="61.518883"
       cy="132.28575"
       cx="61.518883"
       gradientTransform="matrix(1.7490565e-8,-0.23994696,1.054668,3.7915457e-7,-78.109429,148.85907)"
       gradientUnits="userSpaceOnUse"
       id="radialGradient1480"
       xlink:href="#linearGradient2795" />
  </defs>
  <g
     transform="matrix(0.99999682,0,0,1,10.715647,2.7098446)"
     id="g3372">
    <path
       style="fill:url(#linearGradient1478);fill-opacity:1"
       d="m 60.510156,6.3979813 c -4.583653,0.021298 -8.960939,0.4122177 -12.8125,1.09375 C 36.35144,9.4962351 34.291407,13.691833 34.291406,21.429231 l 0,10.21875 26.8125,0 0,3.40625 -26.8125,0 -10.0625,0 c -7.792459,0 -14.6157592,4.683717 -16.7500002,13.59375 -2.46182,10.212966 -2.5710151,16.586023 0,27.25 1.9059283,7.937852 6.4575432,13.593748 14.2500002,13.59375 l 9.21875,0 0,-12.25 c 0,-8.849902 7.657144,-16.656248 16.75,-16.65625 l 26.78125,0 c 7.454951,0 13.406253,-6.138164 13.40625,-13.625 l 0,-25.53125 c 0,-7.266339 -6.12998,-12.7247771 -13.40625,-13.9374997 C 69.872919,6.725006 65.093809,6.376683 60.510156,6.3979813 Z m -14.5,8.2187497 c 2.769547,0 5.03125,2.298646 5.03125,5.125 -2e-6,2.816336 -2.261703,5.09375 -5.03125,5.09375 -2.779476,-1e-6 -5.03125,-2.277415 -5.03125,-5.09375 -1e-6,-2.826353 2.251774,-5.125 5.03125,-5.125 z"
       id="path1948" />
    <path
       style="fill:url(#linearGradient1475);fill-opacity:1"
       d="m 91.228906,35.054231 0,11.90625 c 0,9.230755 -7.825895,16.999999 -16.75,17 l -26.78125,0 c -7.335833,0 -13.406249,6.278483 -13.40625,13.625 l 0,25.531239 c 0,7.26634 6.318588,11.54032 13.40625,13.625 8.487331,2.49561 16.626237,2.94663 26.78125,0 6.750155,-1.95439 13.406253,-5.88761 13.40625,-13.625 l 0,-10.218739 -26.78125,0 0,-3.40625 26.78125,0 13.406254,0 c 7.79246,0 10.69625,-5.435408 13.40624,-13.59375 2.79933,-8.398886 2.68022,-16.475776 0,-27.25 -1.92578,-7.757441 -5.60387,-13.59375 -13.40624,-13.59375 l -10.062504,0 z m -15.0625,64.65625 c 2.779478,3e-6 5.03125,2.277409 5.03125,5.093739 -2e-6,2.82635 -2.251775,5.125 -5.03125,5.125 -2.76955,0 -5.03125,-2.29865 -5.03125,-5.125 2e-6,-2.81633 2.261697,-5.093739 5.03125,-5.093739 z"
       id="path1950" />
    <ellipse
       style="opacity:0.44382025;fill:url(#radialGradient1480);fill-opacity:1;fill-rule:nonzero;stroke:none;stroke-width:20;stroke-miterlimit:4;stroke-dasharray:none;stroke-opacity:1"
       id="path1894"
       cx="61.408131"
       cy="134.09784"
       rx="35.930977"
       ry="6.9673119" />
  </g>
</svg>
