<?xml version="1.0" encoding="UTF-8" standalone="no"?>
<svg
   xmlns:dc="http://purl.org/dc/elements/1.1/"
   xmlns:cc="http://creativecommons.org/ns#"
   xmlns:rdf="http://www.w3.org/1999/02/22-rdf-syntax-ns#"
   xmlns:svg="http://www.w3.org/2000/svg"
   xmlns="http://www.w3.org/2000/svg"
   viewBox="0 0 352.42667 453.57333"
   height="453.57333"
   width="352.42667"
   xml:space="preserve"
   id="svg2"
   version="1.1"><metadata
     id="metadata8"><rdf:RDF><cc:Work
         rdf:about=""><dc:format>image/svg+xml</dc:format><dc:type
           rdf:resource="http://purl.org/dc/dcmitype/StillImage" /></cc:Work></rdf:RDF></metadata><defs
     id="defs6" /><g
     transform="matrix(1.3333333,0,0,-1.3333333,0,453.57333)"
     id="g10"><g
       transform="scale(0.1)"
       id="g12"><path
         id="path14"
         style="fill:#34b36b;fill-opacity:1;fill-rule:nonzero;stroke:none"
         d="M 1321.53,3401.8 0,2652.68 V 1639.69 h 244.746 v 877.47 L 1321.53,3132.64 2398.47,2517.16 V 1404.38 c 0,-169.95 -63.2,-307.58 -172.32,-449.962 -267.74,-350 -752.17,-612.25 -904.43,-685.137 -151.87,73.297 -597.072,305.821 -881.161,636.207 H 1859.92 c 102.83,99.222 135.06,128.852 220.33,244.692 -24.16,0 -2046.2344,0 -2046.2344,0 C 232.98,468.332 1321.31,0 1321.31,0 c 0,0 1089.76,464.211 1287.79,1150.18 21.77,75.89 34.06,172.43 34.06,254.2 v 1248.3 L 1321.53,3401.8" /><path
         id="path16"
         style="fill:#34b36b;fill-opacity:1;fill-rule:nonzero;stroke:none"
         d="m 687.527,2061.69 h 1268.72 v 211.449 H 687.527 Z" /><path
         id="path18"
         style="fill:#34b36b;fill-opacity:1;fill-rule:nonzero;stroke:none"
         d="m 581.492,1691.65 h 1480.17 v 211.441 H 581.492 Z" /><path
         id="path20"
         style="fill:#34b36b;fill-opacity:1;fill-rule:nonzero;stroke:none"
         d="m 581.492,1321.58 h 1480.17 v 211.461 H 581.492 Z" /><path
         id="path22"
         style="fill:#34b36b;fill-opacity:1;fill-rule:nonzero;stroke:none"
         d="m 1030.83,2431.73 h 581.492 v 211.453 H 1030.83 Z" /></g></g></svg>